<?xml version="1.0" standalone="no"?>
<!DOCTYPE svg PUBLIC "-//W3C//DTD SVG 20010904//EN"
 "http://www.w3.org/TR/2001/REC-SVG-20010904/DTD/svg10.dtd">
<svg version="1.0" xmlns="http://www.w3.org/2000/svg"
 width="260.000000pt" height="260.000000pt" viewBox="0 0 260.000000 260.000000"
 preserveAspectRatio="xMidYMid meet">
<metadata>
Created by potrace 1.14, written by Peter Selinger 2001-2017
</metadata>
<g transform="translate(0.000000,260.000000) scale(0.100000,-0.100000)"
fill="#000000" stroke="none">
<path d="M340 2060 l0 -279 33 -5 c17 -3 60 -8 94 -11 35 -3 80 -8 100 -10 21
-2 90 -9 153 -15 63 -6 126 -13 140 -15 14 -2 61 -7 105 -10 44 -3 91 -8 105
-10 14 -2 54 -7 90 -10 36 -3 81 -8 100 -10 19 -2 64 -7 100 -10 36 -4 79 -8
95 -10 17 -2 66 -6 110 -10 44 -3 91 -8 105 -10 24 -4 94 -11 185 -20 136 -13
183 -18 205 -21 14 -1 63 -6 110 -10 47 -3 88 -8 93 -11 4 -2 7 124 7 280 l0
283 -137 13 c-76 8 -149 15 -163 16 -14 1 -54 5 -90 9 -62 6 -125 13 -200 21
-19 2 -69 7 -110 11 -41 3 -82 8 -90 9 -8 1 -51 6 -95 10 -44 4 -91 9 -105 10
-14 1 -56 6 -95 9 -38 4 -83 9 -100 11 -16 2 -61 7 -100 10 -133 12 -160 15
-200 20 -22 2 -69 7 -105 10 -36 3 -81 8 -100 10 -19 2 -64 7 -100 10 -36 3
-82 8 -102 10 l-38 5 0 -280z"/>
<path d="M340 1390 l0 -280 33 -1 c17 0 39 -2 47 -3 8 -2 51 -7 95 -11 44 -4
96 -9 115 -11 19 -2 55 -6 80 -9 25 -3 74 -7 110 -10 36 -3 83 -8 105 -10 79
-9 157 -17 335 -35 169 -16 213 -21 245 -25 17 -3 62 -7 100 -10 39 -3 81 -7
95 -10 14 -2 59 -6 100 -10 41 -4 89 -8 105 -10 17 -2 59 -7 95 -10 36 -3 80
-8 96 -10 17 -2 63 -6 102 -10 l72 -6 0 280 c0 261 -1 281 -17 282 -10 0 -25
2 -34 4 -10 1 -52 6 -95 10 -44 4 -90 8 -104 10 -14 1 -56 5 -95 9 -38 4 -90
9 -115 12 -85 9 -125 13 -195 19 -38 4 -83 8 -100 10 -16 2 -64 7 -105 11 -41
3 -83 8 -93 10 -10 1 -53 6 -95 9 -42 4 -88 8 -102 10 -14 2 -61 7 -105 10
-44 4 -82 8 -85 10 -3 2 -48 6 -100 10 -52 4 -103 9 -112 10 -9 2 -48 7 -85
10 -37 4 -106 11 -153 16 -47 5 -97 9 -112 9 l-28 0 0 -280z"/>
<path d="M340 735 c0 -218 3 -282 13 -282 14 0 130 -11 197 -19 95 -10 127
-13 195 -19 39 -4 81 -8 95 -10 14 -2 57 -7 95 -10 39 -3 84 -7 100 -10 17 -2
57 -6 90 -10 33 -3 78 -8 100 -10 22 -3 72 -7 110 -11 39 -3 84 -7 100 -10 17
-2 59 -6 95 -9 36 -3 81 -8 100 -10 19 -3 62 -7 95 -10 33 -3 80 -8 105 -10
122 -13 182 -19 295 -30 28 -3 71 -8 98 -11 l47 -5 0 281 c0 154 -3 280 -7
281 -5 0 -15 2 -23 3 -8 2 -53 7 -100 11 -47 4 -96 9 -110 10 -69 7 -149 16
-180 20 -19 2 -66 7 -105 10 -38 3 -88 8 -110 10 -59 7 -133 14 -200 20 -33 3
-76 8 -95 10 -19 2 -62 7 -95 10 -33 3 -80 8 -105 11 -49 5 -149 15 -385 38
-142 15 -212 22 -315 32 -25 2 -57 6 -72 8 l-28 3 0 -282z"/>
</g>
</svg>
