<?xml version="1.0" standalone="no"?>
<!DOCTYPE svg PUBLIC "-//W3C//DTD SVG 20010904//EN"
 "http://www.w3.org/TR/2001/REC-SVG-20010904/DTD/svg10.dtd">
<svg version="1.0" xmlns="http://www.w3.org/2000/svg"
 width="260.000000pt" height="260.000000pt" viewBox="0 0 260.000000 260.000000"
 preserveAspectRatio="xMidYMid meet">
<metadata>
Created by potrace 1.14, written by Peter Selinger 2001-2017
</metadata>
<g transform="translate(0.000000,260.000000) scale(0.100000,-0.100000)"
fill="#000000" stroke="none">
<path d="M1195 1848 c-62 -38 -491 -277 -510 -284 -9 -4 -12 4 -10 30 1 19 -1
40 -5 47 -15 23 -30 -3 -28 -52 0 -27 -1 -51 -3 -53 -2 -1 -30 -17 -61 -35
-39 -22 -55 -36 -51 -46 7 -19 6 -19 60 10 26 13 49 23 51 21 5 -6 8 -464 2
-464 -3 0 -26 0 -52 -1 -64 -1 -62 -21 2 -21 l50 0 0 -39 c0 -25 5 -41 15 -45
12 -4 15 4 15 39 l0 45 468 1 c257 0 493 1 525 0 37 0 57 4 55 11 -3 7 -164
11 -523 12 l-520 1 -2 242 -1 243 231 131 c369 209 367 208 361 224 -8 19 -10
19 -69 -17z"/>
<path d="M1285 1446 c3 -295 1 -365 -10 -370 -7 -2 -16 -2 -19 1 -3 4 -6 161
-6 350 0 188 -3 343 -6 343 -4 0 -79 -42 -168 -92 -88 -51 -181 -104 -207
-118 -25 -14 -72 -40 -105 -59 l-60 -33 1 -209 c0 -132 4 -209 10 -210 6 0
232 -2 503 -2 357 -2 496 1 503 9 12 15 -7 23 -44 19 -15 -2 -27 2 -28 8 0 7
-2 161 -3 344 0 182 -5 335 -9 339 -4 4 -25 15 -47 25 l-41 19 2 -361 c1 -298
-1 -363 -12 -370 -8 -4 -17 -5 -21 -1 -4 4 -9 160 -10 346 l-3 339 -40 23
c-22 13 -43 23 -46 24 -4 0 -5 -166 -3 -369 4 -347 3 -369 -13 -367 -17 3 -18
28 -21 348 l-2 345 -43 18 c-23 10 -45 20 -49 22 -3 2 -5 -160 -3 -361z m-72
197 c-1 -38 -2 -149 -2 -249 l-1 -180 -115 -2 -115 -2 0 188 0 189 113 61 c61
34 114 62 117 62 3 0 4 -30 3 -67z m-272 -214 c1 -236 3 -221 -37 -247 -20
-13 -38 -21 -42 -18 -3 3 -5 47 -4 98 0 51 1 129 1 173 l1 80 38 22 c20 11 38
20 40 18 1 -1 3 -58 3 -126z m-119 -41 c2 -51 2 -123 0 -160 -3 -65 -4 -68
-42 -98 l-40 -32 0 171 0 171 33 20 c17 11 35 20 39 20 4 0 8 -42 10 -92z"/>
<path d="M1770 1070 c0 -5 10 -10 23 -10 18 0 19 -2 7 -10 -13 -9 -13 -11 0
-20 16 -10 9 -13 -25 -11 -18 1 -18 0 2 -11 28 -14 50 2 48 33 -2 29 -55 57
-55 29z"/>
<path d="M1851 1067 c-28 -28 -4 -66 41 -64 25 2 28 6 28 37 0 31 -3 35 -29
37 -15 1 -33 -3 -40 -10z m49 -27 c0 -13 -7 -20 -18 -20 -24 0 -32 8 -25 26 8
22 43 17 43 -6z"/>
<path d="M1940 1040 c0 -35 3 -40 24 -40 30 0 44 19 37 49 -5 17 -15 26 -34
28 -26 3 -27 1 -27 -37z m43 13 c-7 -2 -19 -2 -25 0 -7 3 -2 5 12 5 14 0 19
-2 13 -5z m7 -33 c0 -4 -9 -6 -21 -3 -15 4 -17 8 -8 14 14 8 29 3 29 -11z"/>
<path d="M2030 1065 c-26 -32 13 -81 48 -59 34 22 22 74 -18 74 -10 0 -23 -7
-30 -15z m44 -42 c-21 -15 -34 -8 -34 17 0 25 22 32 38 11 11 -13 10 -18 -4
-28z"/>
<path d="M2134 1062 c-3 -9 -10 -25 -15 -34 -5 -10 -9 -25 -9 -33 0 -14 2 -14
21 -2 21 15 63 12 53 -4 -3 -5 0 -9 7 -9 7 0 9 8 4 23 -4 12 -7 33 -7 47 0 20
-6 26 -25 28 -15 1 -26 -4 -29 -16z m36 -22 c0 -11 -7 -20 -15 -20 -17 0 -18
2 -9 24 9 23 24 20 24 -4z"/>
<path d="M228 862 c-15 -3 -18 -15 -18 -76 l0 -73 38 2 c21 1 44 5 50 9 15 9
16 66 2 66 -7 0 -7 6 -1 19 18 32 -24 63 -71 53z m52 -36 c0 -16 -19 -25 -37
-18 -23 8 -14 32 12 32 15 0 25 -6 25 -14z m8 -67 c3 -17 -23 -29 -45 -22 -7
3 -13 14 -13 24 0 16 6 20 27 17 16 -2 29 -10 31 -19z"/>
<path d="M390 862 c-88 -14 -75 -146 15 -146 57 0 90 52 69 109 -9 22 -54 42
-84 37z m54 -38 c30 -29 13 -75 -31 -89 -24 -7 -63 24 -63 50 0 48 60 73 94
39z"/>
<path d="M520 861 c-11 -4 -16 -21 -17 -56 -3 -65 5 -104 17 -85 4 7 6 19 3
27 -3 7 -1 13 3 14 27 2 59 11 65 17 13 13 19 47 11 60 -11 16 -63 31 -82 23z
m60 -45 c0 -26 -16 -37 -40 -27 -14 5 -17 18 -12 44 1 4 13 7 27 7 20 0 25 -5
25 -24z"/>
<path d="M673 859 c-51 -19 -66 -88 -26 -127 21 -22 77 -20 103 3 23 21 28 86
7 103 -24 20 -62 30 -84 21z m67 -40 c16 -29 8 -62 -18 -75 -31 -15 -57 -8
-72 21 -11 20 -10 28 4 50 21 32 70 35 86 4z"/>
<path d="M808 862 c-32 -4 -38 -22 -8 -22 18 0 20 -7 20 -59 0 -33 5 -63 10
-66 11 -7 12 3 12 78 0 40 3 47 20 47 11 0 18 5 16 12 -4 12 -26 15 -70 10z"/>
<path d="M1240 860 c-9 -5 -13 -43 -11 -105 1 -41 1 -41 41 -41 26 0 40 4 40
12 0 8 -11 12 -27 11 -22 -2 -29 3 -31 21 -3 18 1 22 22 22 14 0 26 5 26 10 0
6 -11 10 -25 10 -18 0 -25 5 -25 20 0 16 7 20 30 20 17 0 30 5 30 13 0 12 -53
17 -70 7z"/>
<path d="M1443 850 c-18 -11 -34 -27 -34 -35 -1 -8 -2 -21 -3 -27 -4 -25 17
-57 43 -68 31 -12 87 3 76 20 -4 7 -11 7 -18 2 -30 -23 -92 21 -80 56 12 33
27 43 59 40 43 -3 54 9 20 22 -33 12 -25 14 -63 -10z"/>
<path d="M1852 862 c-25 -4 -20 -22 6 -22 14 0 17 -10 16 -52 -1 -58 4 -80 16
-73 4 3 7 30 5 61 -2 51 0 56 23 65 14 5 23 12 20 14 -7 7 -59 11 -86 7z"/>
<path d="M1978 862 c-18 -3 -26 -54 -18 -112 5 -32 8 -35 40 -35 19 0 35 5 35
10 0 6 -11 10 -25 10 -18 0 -26 6 -28 23 -3 18 1 22 22 22 14 0 28 5 31 10 4
6 -7 10 -24 10 -24 0 -31 4 -31 19 0 15 8 21 33 23 17 2 30 7 27 12 -5 10 -33
14 -62 8z"/>
<path d="M905 790 c1 -71 17 -102 23 -42 3 31 6 33 35 30 18 -2 33 -9 33 -15
1 -7 2 -22 3 -34 0 -11 6 -17 11 -14 6 3 10 37 10 76 0 39 -4 69 -10 69 -10 0
-14 -13 -11 -42 2 -14 -5 -18 -33 -18 -33 0 -36 2 -36 30 0 18 -5 30 -13 30
-9 0 -12 -19 -12 -70z"/>
<path d="M1050 791 c0 -80 6 -88 60 -74 64 17 51 93 -16 93 -20 0 -25 4 -22
22 2 11 -3 23 -9 25 -10 4 -13 -14 -13 -66z m64 -7 c21 -8 20 -41 -1 -46 -27
-7 -43 1 -43 22 0 10 6 21 13 23 6 3 13 6 14 6 1 1 8 -2 17 -5z"/>
<path d="M1179 858 c-7 -12 -4 -140 3 -144 10 -6 10 -6 14 79 1 37 -2 67 -7
67 -5 0 -10 -1 -10 -2z"/>
<path d="M1550 784 l0 -76 50 53 50 54 0 -52 c0 -50 19 -78 21 -30 4 99 3 127
-1 127 -3 0 -26 -21 -50 -47 l-45 -48 -3 48 c-5 76 -22 54 -22 -29z"/>
<path d="M1728 848 c-24 -18 -37 -59 -27 -85 16 -42 71 -61 109 -38 18 11 0
26 -19 16 -24 -13 -65 9 -69 36 -2 12 2 32 8 44 10 18 18 21 52 16 27 -4 38
-2 35 6 -5 17 -69 20 -89 5z"/>
<path d="M2087 846 c-13 -34 -19 -136 -8 -136 6 0 11 10 11 23 0 12 3 32 6 45
6 21 8 20 25 -18 20 -45 31 -45 56 3 l17 32 8 -42 c12 -57 31 -57 23 0 -4 23
-10 58 -14 77 l-7 35 -28 -53 c-15 -30 -29 -52 -30 -50 -2 1 -15 24 -29 51
-16 31 -27 43 -30 33z"/>
<path d="M2259 858 c-1 -2 -2 -33 -3 -70 -1 -70 4 -80 40 -73 11 2 25 4 32 4
7 1 18 12 24 26 9 21 8 28 -7 45 -10 11 -30 20 -45 20 -24 0 -27 3 -22 25 2
15 0 25 -7 25 -6 0 -12 -1 -12 -2z m62 -78 c24 -14 11 -43 -20 -45 -15 -1 -21
4 -21 20 0 35 10 41 41 25z"/>
<path d="M2379 833 c-1 -28 -1 -101 0 -116 1 -5 6 -5 11 -2 6 3 10 37 10 76 0
39 -4 69 -10 69 -5 0 -11 -12 -11 -27z"/>
</g>
</svg>
