<svg width="18" height="18" viewBox="0 0 18 18" fill="none" xmlns="http://www.w3.org/2000/svg">
<path d="M16.8634 8.23124L8.99963 12.9502L1.13588 8.23124C0.965316 8.1289 0.76108 8.09851 0.568105 8.14675C0.37513 8.195 0.209224 8.31793 0.106883 8.48849C0.00454304 8.65906 -0.0258482 8.8633 0.0223956 9.05627C0.0706393 9.24925 0.193566 9.41515 0.364133 9.51749L8.61413 14.4675C8.73078 14.5376 8.8643 14.5746 9.00038 14.5746C9.13647 14.5746 9.26999 14.5376 9.38663 14.4675L17.6366 9.51749C17.8072 9.41515 17.9301 9.24925 17.9784 9.05627C18.0266 8.8633 17.9962 8.65906 17.8939 8.48849C17.7915 8.31793 17.6256 8.195 17.4327 8.14675C17.2397 8.09851 17.0354 8.1289 16.8649 8.23124H16.8634Z" fill="#138FE9"/>
<path d="M16.8634 11.6572L8.99963 16.3755L1.13588 11.6572C1.05142 11.6065 0.957815 11.573 0.860395 11.5585C0.762975 11.544 0.663655 11.5488 0.568103 11.5727C0.472552 11.5966 0.382641 11.6391 0.303504 11.6977C0.224368 11.7564 0.157555 11.83 0.106881 11.9145C0.0562074 11.9989 0.0226647 12.0925 0.00816821 12.1899C-0.00632824 12.2874 -0.00149454 12.3867 0.0223933 12.4822C0.0706371 12.6752 0.193564 12.8411 0.364131 12.9435L8.61413 17.8935C8.73078 17.9635 8.8643 18.0006 9.00038 18.0006C9.13647 18.0006 9.26998 17.9635 9.38663 17.8935L17.6366 12.9435C17.8072 12.8411 17.9301 12.6752 17.9784 12.4822C18.0266 12.2893 17.9962 12.085 17.8939 11.9145C17.7915 11.7439 17.6256 11.621 17.4327 11.5727C17.2397 11.5245 17.0354 11.5549 16.8649 11.6572H16.8634Z" fill="#138FE9"/>
<path d="M8.99976 11.0797C8.5952 11.0795 8.1983 10.9693 7.85151 10.761L0.363513 6.26773C0.252623 6.20105 0.160871 6.10682 0.0971733 5.99419C0.0334757 5.88157 0 5.75437 0 5.62498C0 5.49559 0.0334757 5.3684 0.0971733 5.25577C0.160871 5.14314 0.252623 5.04891 0.363513 4.98223L7.85151 0.488981C8.19829 0.280653 8.59522 0.170593 8.99976 0.170593C9.40431 0.170593 9.80123 0.280653 10.148 0.488981L17.636 4.98223C17.7469 5.04891 17.8387 5.14314 17.9024 5.25577C17.966 5.3684 17.9995 5.49559 17.9995 5.62498C17.9995 5.75437 17.966 5.88157 17.9024 5.99419C17.8387 6.10682 17.7469 6.20105 17.636 6.26773L10.148 10.761C9.80122 10.9693 9.40433 11.0795 8.99976 11.0797ZM2.20776 5.62498L8.62476 9.47473C8.7381 9.54253 8.8677 9.57833 8.99976 9.57833C9.13183 9.57833 9.26143 9.54253 9.37476 9.47473L15.7918 5.62498L9.37476 1.77523C9.26143 1.70743 9.13183 1.67163 8.99976 1.67163C8.8677 1.67163 8.7381 1.70743 8.62476 1.77523L2.20776 5.62498Z" fill="#138FE9"/>
</svg>
