<svg width="18" height="18" viewBox="0 0 18 18" fill="none" xmlns="http://www.w3.org/2000/svg">
<path d="M12 0H6C5.0058 0.00119089 4.05267 0.396661 3.34966 1.09966C2.64666 1.80267 2.25119 2.7558 2.25 3.75V14.25C2.25119 15.2442 2.64666 16.1973 3.34966 16.9003C4.05267 17.6033 5.0058 17.9988 6 18H12C12.9942 17.9988 13.9473 17.6033 14.6503 16.9003C15.3533 16.1973 15.7488 15.2442 15.75 14.25V3.75C15.7488 2.7558 15.3533 1.80267 14.6503 1.09966C13.9473 0.396661 12.9942 0.00119089 12 0V0ZM14.25 14.25C14.25 14.8467 14.0129 15.419 13.591 15.841C13.169 16.2629 12.5967 16.5 12 16.5H6C5.40326 16.5 4.83097 16.2629 4.40901 15.841C3.98705 15.419 3.75 14.8467 3.75 14.25V3.75C3.75 3.15326 3.98705 2.58097 4.40901 2.15901C4.83097 1.73705 5.40326 1.5 6 1.5H12C12.5967 1.5 13.169 1.73705 13.591 2.15901C14.0129 2.58097 14.25 3.15326 14.25 3.75V14.25Z" fill="#138FE9"/>
<rect x="8" y="9" width="1.4" height="5" rx="0.7" fill="#138FE9"/>
<rect x="3" y="5" width="12" height="1.4" fill="#138FE9"/>
</svg>
