<svg width="18" height="18" viewBox="0 0 18 18" fill="none" xmlns="http://www.w3.org/2000/svg">
<path d="M9 6C8.40666 6 7.82664 6.17595 7.33329 6.50559C6.83994 6.83524 6.45543 7.30377 6.22836 7.85195C6.0013 8.40013 5.94189 9.00333 6.05765 9.58527C6.1734 10.1672 6.45912 10.7018 6.87868 11.1213C7.29824 11.5409 7.83279 11.8266 8.41473 11.9424C8.99667 12.0581 9.59987 11.9987 10.1481 11.7716C10.6962 11.5446 11.1648 11.1601 11.4944 10.6667C11.8241 10.1734 12 9.59334 12 9C12 8.20435 11.6839 7.44129 11.1213 6.87868C10.5587 6.31607 9.79565 6 9 6ZM9 10.5C8.70333 10.5 8.41332 10.412 8.16665 10.2472C7.91997 10.0824 7.72771 9.84811 7.61418 9.57403C7.50065 9.29994 7.47095 8.99834 7.52882 8.70736C7.5867 8.41639 7.72956 8.14912 7.93934 7.93934C8.14912 7.72956 8.41639 7.5867 8.70737 7.52882C8.99834 7.47094 9.29994 7.50065 9.57403 7.61418C9.84812 7.72771 10.0824 7.91997 10.2472 8.16665C10.412 8.41332 10.5 8.70333 10.5 9C10.5 9.39783 10.342 9.77936 10.0607 10.0607C9.77936 10.342 9.39783 10.5 9 10.5Z" fill="#E97A13"/>
<path d="M15.9704 10.425L15.6374 10.233C15.7873 9.41733 15.7873 8.58117 15.6374 7.7655L15.9704 7.5735C16.2264 7.42576 16.4509 7.22903 16.6309 6.99455C16.811 6.76006 16.9431 6.4924 17.0197 6.20686C17.0963 5.92132 17.1159 5.62349 17.0774 5.33037C17.0389 5.03725 16.9431 4.75458 16.7954 4.4985C16.6476 4.24242 16.4509 4.01795 16.2164 3.8379C15.9819 3.65785 15.7143 3.52575 15.4287 3.44915C15.1432 3.37254 14.8453 3.35292 14.5522 3.39142C14.2591 3.42991 13.9764 3.52576 13.7204 3.6735L13.3866 3.86625C12.7563 3.32769 12.0318 2.91019 11.2498 2.63475V2.25C11.2498 1.65326 11.0128 1.08097 10.5908 0.65901C10.1689 0.237053 9.59659 0 8.99985 0C8.40311 0 7.83082 0.237053 7.40886 0.65901C6.9869 1.08097 6.74985 1.65326 6.74985 2.25V2.63475C5.96789 2.91118 5.24374 3.3297 4.61385 3.86925L4.2786 3.675C3.76143 3.37663 3.14691 3.29593 2.57024 3.45065C1.99356 3.60536 1.50197 3.98283 1.2036 4.5C0.905231 5.01717 0.824528 5.63169 0.979246 6.20836C1.13396 6.78504 1.51143 7.27663 2.0286 7.575L2.3616 7.767C2.21168 8.58267 2.21168 9.41883 2.3616 10.2345L2.0286 10.4265C1.51143 10.7249 1.13396 11.2165 0.979246 11.7931C0.824528 12.3698 0.905231 12.9843 1.2036 13.5015C1.50197 14.0187 1.99356 14.3961 2.57024 14.5509C3.14691 14.7056 3.76143 14.6249 4.2786 14.3265L4.61235 14.1337C5.24292 14.6724 5.96758 15.0899 6.74985 15.3652V15.75C6.74985 16.3467 6.9869 16.919 7.40886 17.341C7.83082 17.7629 8.40311 18 8.99985 18C9.59659 18 10.1689 17.7629 10.5908 17.341C11.0128 16.919 11.2498 16.3467 11.2498 15.75V15.3652C12.0318 15.0888 12.756 14.6703 13.3858 14.1307L13.7211 14.3243C14.2383 14.6226 14.8528 14.7033 15.4295 14.5486C16.0061 14.3939 16.4977 14.0164 16.7961 13.4993C17.0945 12.9821 17.1752 12.3676 17.0205 11.7909C16.8657 11.2142 16.4883 10.7226 15.9711 10.4242L15.9704 10.425ZM14.0594 7.593C14.3133 8.5133 14.3133 9.4852 14.0594 10.4055C14.015 10.5657 14.0251 10.7361 14.0881 10.8899C14.1511 11.0437 14.2634 11.1722 14.4073 11.2552L15.2204 11.7248C15.3927 11.8242 15.5185 11.9881 15.57 12.1803C15.6216 12.3725 15.5947 12.5773 15.4952 12.7496C15.3958 12.922 15.2319 13.0478 15.0397 13.0993C14.8475 13.1509 14.6427 13.124 14.4704 13.0245L13.6558 12.5535C13.5118 12.4701 13.344 12.4369 13.179 12.4593C13.014 12.4817 12.8612 12.5584 12.7446 12.6772C12.077 13.3587 11.236 13.845 10.3123 14.0835C10.1511 14.125 10.0083 14.2189 9.90629 14.3504C9.80432 14.482 9.74902 14.6438 9.7491 14.8102V15.75C9.7491 15.9489 9.67008 16.1397 9.52943 16.2803C9.38878 16.421 9.19801 16.5 8.9991 16.5C8.80019 16.5 8.60942 16.421 8.46877 16.2803C8.32812 16.1397 8.2491 15.9489 8.2491 15.75V14.811C8.24918 14.6445 8.19388 14.4828 8.0919 14.3512C7.98993 14.2196 7.84707 14.1257 7.68585 14.0842C6.76211 13.8448 5.92135 13.3575 5.25435 12.675C5.13774 12.5561 4.9849 12.4795 4.81992 12.4571C4.65493 12.4347 4.48718 12.4678 4.3431 12.5513L3.5301 13.0215C3.44477 13.0715 3.35039 13.1042 3.25239 13.1176C3.15439 13.131 3.05471 13.1249 2.95909 13.0996C2.86346 13.0743 2.77379 13.0303 2.69521 12.9703C2.61664 12.9102 2.55073 12.8352 2.50128 12.7495C2.45182 12.6638 2.4198 12.5692 2.40705 12.4712C2.3943 12.3731 2.40108 12.2734 2.42699 12.178C2.45291 12.0825 2.49745 11.9931 2.55805 11.915C2.61865 11.8368 2.69411 11.7714 2.7801 11.7225L3.5931 11.253C3.73706 11.1699 3.84936 11.0414 3.91234 10.8876C3.97533 10.7338 3.98545 10.5634 3.9411 10.4032C3.68712 9.48295 3.68712 8.51105 3.9411 7.59075C3.98465 7.43091 3.97405 7.26115 3.91096 7.10797C3.84787 6.95479 3.73584 6.8268 3.59235 6.744L2.77935 6.2745C2.60699 6.17504 2.4812 6.01119 2.42965 5.81899C2.3781 5.62679 2.40502 5.42198 2.50447 5.24962C2.60393 5.07727 2.76778 4.95148 2.95998 4.89993C3.15218 4.84838 3.35699 4.87529 3.52935 4.97475L4.34385 5.44575C4.48753 5.52939 4.65493 5.56291 4.81974 5.54105C4.98455 5.51919 5.13743 5.4432 5.25435 5.325C5.92191 4.64351 6.76292 4.15727 7.6866 3.91875C7.84832 3.87717 7.99155 3.78281 8.09358 3.65063C8.1956 3.51844 8.2506 3.35598 8.24985 3.189V2.25C8.24985 2.05109 8.32887 1.86032 8.46952 1.71967C8.61017 1.57902 8.80094 1.5 8.99985 1.5C9.19876 1.5 9.38953 1.57902 9.53018 1.71967C9.67083 1.86032 9.74985 2.05109 9.74985 2.25V3.189C9.74977 3.35547 9.80507 3.51723 9.90705 3.64881C10.009 3.78039 10.1519 3.8743 10.3131 3.91575C11.2371 4.15511 12.0781 4.64241 12.7453 5.325C12.862 5.44385 13.0148 5.52052 13.1798 5.54292C13.3448 5.56533 13.5125 5.5322 13.6566 5.44875L14.4696 4.9785C14.5549 4.92848 14.6493 4.89583 14.7473 4.88243C14.8453 4.86903 14.945 4.87514 15.0406 4.90043C15.1362 4.92571 15.2259 4.96965 15.3045 5.02974C15.3831 5.08982 15.449 5.16485 15.4984 5.2505C15.5479 5.33616 15.5799 5.43076 15.5927 5.52884C15.6054 5.62693 15.5986 5.72656 15.5727 5.82202C15.5468 5.91747 15.5023 6.00686 15.4417 6.08503C15.381 6.1632 15.3056 6.22861 15.2196 6.2775L14.4066 6.747C14.2634 6.83003 14.1517 6.95811 14.0889 7.11127C14.026 7.26443 14.0157 7.43407 14.0594 7.59375V7.593Z" fill="#E97A13"/>
</svg>
