<svg width="18" height="18" viewBox="0 0 18 18" fill="none" xmlns="http://www.w3.org/2000/svg">
<g clip-path="url(#clip0)">
<path d="M14.9625 4.15199L12.348 1.53749C11.8617 1.04855 11.2832 0.660911 10.6461 0.397001C10.009 0.133091 9.32586 -0.00184772 8.63625 -6.19842e-06H5.25C4.2558 0.00118469 3.30267 0.396655 2.59966 1.09966C1.89666 1.80266 1.50119 2.7558 1.5 3.74999V14.25C1.50119 15.2442 1.89666 16.1973 2.59966 16.9003C3.30267 17.6033 4.2558 17.9988 5.25 18H12.75C13.7442 17.9988 14.6973 17.6033 15.4003 16.9003C16.1033 16.1973 16.4988 15.2442 16.5 14.25V7.86374C16.5018 7.17413 16.3669 6.491 16.103 5.85388C15.8391 5.21677 15.4514 4.63831 14.9625 4.15199ZM13.902 5.21249C14.1308 5.4483 14.3277 5.71305 14.4877 5.99999H11.25C11.0511 5.99999 10.8603 5.92098 10.7197 5.78032C10.579 5.63967 10.5 5.44891 10.5 5.24999V2.01224C10.7869 2.17228 11.0517 2.36921 11.2875 2.59799L13.902 5.21249ZM15 14.25C15 14.8467 14.7629 15.419 14.341 15.841C13.919 16.2629 13.3467 16.5 12.75 16.5H5.25C4.65326 16.5 4.08097 16.2629 3.65901 15.841C3.23705 15.419 3 14.8467 3 14.25V3.74999C3 3.15326 3.23705 2.58096 3.65901 2.159C4.08097 1.73705 4.65326 1.49999 5.25 1.49999H8.63625C8.76 1.49999 8.8785 1.52399 9 1.53524V5.24999C9 5.84673 9.23705 6.41903 9.65901 6.84098C10.081 7.26294 10.6533 7.49999 11.25 7.49999H14.9647C14.976 7.62149 15 7.73999 15 7.86374V14.25ZM12.543 9.98324C12.6799 10.1273 12.7541 10.3198 12.7492 10.5185C12.7443 10.7173 12.6607 10.9059 12.5167 11.043L9.825 13.6035C9.40188 14.02 8.83131 14.2523 8.23762 14.2499C7.64394 14.2475 7.07525 14.0106 6.6555 13.5907L5.5005 12.5602C5.35191 12.4278 5.26204 12.2417 5.25064 12.0429C5.245 11.9445 5.2588 11.846 5.29125 11.7529C5.32369 11.6598 5.37415 11.5741 5.43975 11.5005C5.50535 11.4269 5.58479 11.367 5.67355 11.3241C5.7623 11.2812 5.85864 11.2563 5.95704 11.2506C6.15578 11.2392 6.35091 11.3073 6.4995 11.4397L7.68825 12.5002C7.7563 12.5767 7.83927 12.6384 7.93206 12.6815C8.02484 12.7247 8.12548 12.7484 8.22777 12.7512C8.33006 12.754 8.43184 12.7358 8.52686 12.6979C8.62187 12.6599 8.7081 12.6028 8.78025 12.5302L11.4803 9.95699C11.5516 9.88873 11.6358 9.83524 11.7279 9.7996C11.8201 9.76396 11.9183 9.74687 12.0171 9.74931C12.1158 9.75175 12.2131 9.77367 12.3034 9.81381C12.3936 9.85396 12.4751 9.91154 12.543 9.98324Z" fill="#E97A13"/>
</g>
<defs>
<clipPath id="clip0">
<rect width="18" height="18" fill="white"/>
</clipPath>
</defs>
</svg>
