<svg width="42" height="36" viewBox="0 0 42 36" fill="none" xmlns="http://www.w3.org/2000/svg">
<path d="M36.7497 18.742V16.25C36.7497 12.0728 35.0904 8.06677 32.1367 5.11307C29.183 2.15937 25.1769 0.5 20.9997 0.5C16.8226 0.5 12.8165 2.15937 9.8628 5.11307C6.9091 8.06677 5.24973 12.0728 5.24973 16.25V18.742C3.41426 19.5502 1.91213 20.9644 0.994818 22.7479C0.0775051 24.5313 -0.199313 26.5758 0.210706 28.5389C0.620725 30.5021 1.69269 32.2648 3.24715 33.532C4.80161 34.7993 6.74421 35.494 8.74973 35.5C9.67799 35.5 10.5682 35.1313 11.2246 34.4749C11.881 33.8185 12.2497 32.9283 12.2497 32V21.5C12.2497 20.5717 11.881 19.6815 11.2246 19.0251C10.5682 18.3688 9.67799 18 8.74973 18V16.25C8.74973 13.0011 10.0404 9.88526 12.3377 7.58794C14.635 5.29062 17.7508 4 20.9997 4C24.2486 4 27.3645 5.29062 29.6618 7.58794C31.9591 9.88526 33.2497 13.0011 33.2497 16.25V18C32.3215 18 31.4312 18.3688 30.7749 19.0251C30.1185 19.6815 29.7497 20.5717 29.7497 21.5V32H24.4997C24.0356 32 23.5905 32.1844 23.2623 32.5126C22.9341 32.8408 22.7497 33.2859 22.7497 33.75C22.7497 34.2141 22.9341 34.6593 23.2623 34.9874C23.5905 35.3156 24.0356 35.5 24.4997 35.5H33.2497C35.2552 35.494 37.1978 34.7993 38.7523 33.532C40.3068 32.2648 41.3787 30.5021 41.7887 28.5389C42.1988 26.5758 41.922 24.5313 41.0046 22.7479C40.0873 20.9644 38.5852 19.5502 36.7497 18.742ZM8.74973 32C7.35734 32 6.02199 31.4469 5.03742 30.4623C4.05285 29.4777 3.49973 28.1424 3.49973 26.75C3.49973 25.3576 4.05285 24.0223 5.03742 23.0377C6.02199 22.0531 7.35734 21.5 8.74973 21.5V32ZM33.2497 32V21.5C34.6421 21.5 35.9775 22.0531 36.962 23.0377C37.9466 24.0223 38.4997 25.3576 38.4997 26.75C38.4997 28.1424 37.9466 29.4777 36.962 30.4623C35.9775 31.4469 34.6421 32 33.2497 32Z" fill="white"/>
</svg>
