<svg width="35" height="36" viewBox="0 0 35 36" fill="none" xmlns="http://www.w3.org/2000/svg">
<path d="M21.5 14.5H29.8369C32.4387 14.5 34.131 17.2381 32.9674 19.5652L26.8424 31.8152C26.2495 33.001 25.0376 33.75 23.7119 33.75H16.6809C16.3947 33.75 16.1096 33.7149 15.832 33.6455L9.25 32M21.5 14.5V5.75C21.5 3.817 19.933 2.25 18 2.25H17.8329C16.9587 2.25 16.25 2.9587 16.25 3.83292C16.25 5.08295 15.88 6.30502 15.1866 7.34511L9.25 16.25V32M21.5 14.5H18M9.25 32H5.75C3.817 32 2.25 30.433 2.25 28.5V18C2.25 16.067 3.817 14.5 5.75 14.5H10.125" stroke="white" stroke-width="3" stroke-linecap="round" stroke-linejoin="round"/>
</svg>
