<svg width="34" height="42" viewBox="0 0 34 42" fill="none" xmlns="http://www.w3.org/2000/svg">
<path d="M14.25 21C14.7141 21 15.1592 21.1844 15.4874 21.5126C15.8156 21.8408 16 22.2859 16 22.75C16 23.2141 15.8156 23.6592 15.4874 23.9874C15.1592 24.3156 14.7141 24.5 14.25 24.5H9C8.53587 24.5 8.09075 24.3156 7.76256 23.9874C7.43437 23.6592 7.25 23.2141 7.25 22.75C7.25 22.2859 7.43437 21.8408 7.76256 21.5126C8.09075 21.1844 8.53587 21 9 21H14.25ZM24.75 15.75C24.75 15.2859 24.5656 14.8408 24.2374 14.5126C23.9093 14.1844 23.4641 14 23 14H9C8.53587 14 8.09075 14.1844 7.76256 14.5126C7.43437 14.8408 7.25 15.2859 7.25 15.75C7.25 16.2141 7.43437 16.6592 7.76256 16.9874C8.09075 17.3156 8.53587 17.5 9 17.5H23C23.4641 17.5 23.9093 17.3156 24.2374 16.9874C24.5656 16.6592 24.75 16.2141 24.75 15.75ZM9 10.5H23C23.4641 10.5 23.9093 10.3156 24.2374 9.98744C24.5656 9.65925 24.75 9.21413 24.75 8.75C24.75 8.28587 24.5656 7.84075 24.2374 7.51256C23.9093 7.18437 23.4641 7 23 7H9C8.53587 7 8.09075 7.18437 7.76256 7.51256C7.43437 7.84075 7.25 8.28587 7.25 8.75C7.25 9.21413 7.43437 9.65925 7.76256 9.98744C8.09075 10.3156 8.53587 10.5 9 10.5ZM30 34.027V40.7347C30.0001 40.9844 29.9262 41.2285 29.7876 41.4361C29.6489 41.6437 29.4518 41.8055 29.2212 41.901C28.9906 41.9966 28.7368 42.0216 28.4919 41.9728C28.2471 41.9241 28.0222 41.8038 27.8457 41.6273L26.5 40.2832L25.1543 41.6273C24.9778 41.8038 24.7529 41.9241 24.5081 41.9728C24.2632 42.0216 24.0094 41.9966 23.7788 41.901C23.5482 41.8055 23.3511 41.6437 23.2124 41.4361C23.0738 41.2285 22.9999 40.9844 23 40.7347V34.027C21.6654 33.2602 20.6217 32.0735 20.0317 30.6519C19.4416 29.2302 19.3382 27.6533 19.7376 26.1668C20.137 24.6803 21.0168 23.3675 22.2399 22.433C23.463 21.4985 24.9608 20.9947 26.5 21C27.0916 21.0074 27.6797 21.0909 28.25 21.2485V8.75C28.25 7.35761 27.6969 6.02226 26.7123 5.03769C25.7277 4.05312 24.3924 3.5 23 3.5H9C7.60761 3.5 6.27226 4.05312 5.28769 5.03769C4.30312 6.02226 3.75 7.35761 3.75 8.75V29.75C3.75 31.1424 4.30312 32.4777 5.28769 33.4623C6.27226 34.4469 7.60761 35 9 35H17.75C18.2141 35 18.6592 35.1844 18.9874 35.5126C19.3156 35.8408 19.5 36.2859 19.5 36.75C19.5 37.2141 19.3156 37.6592 18.9874 37.9874C18.6592 38.3156 18.2141 38.5 17.75 38.5H9C6.68021 38.4972 4.45623 37.5745 2.81588 35.9341C1.17554 34.2938 0.252779 32.0698 0.25 29.75V8.75C0.252779 6.43021 1.17554 4.20623 2.81588 2.56588C4.45623 0.925543 6.68021 0.00277875 9 0L23 0C25.3198 0.00277875 27.5438 0.925543 29.1841 2.56588C30.8245 4.20623 31.7472 6.43021 31.75 8.75V23.4185C32.4355 24.1883 32.9402 25.1017 33.227 26.0918C33.5139 27.0818 33.5757 28.1235 33.4079 29.1406C33.2402 30.1576 32.847 31.1243 32.2574 31.9698C31.6677 32.8152 30.8964 33.5181 30 34.027ZM30 28C30 27.3078 29.7947 26.6311 29.4101 26.0555C29.0256 25.4799 28.4789 25.0313 27.8394 24.7664C27.1999 24.5015 26.4961 24.4322 25.8172 24.5673C25.1383 24.7023 24.5146 25.0356 24.0251 25.5251C23.5356 26.0146 23.2023 26.6383 23.0673 27.3172C22.9322 27.9961 23.0015 28.6999 23.2664 29.3394C23.5313 29.9789 23.9799 30.5256 24.5555 30.9101C25.1311 31.2947 25.8078 31.5 26.5 31.5C27.4283 31.5 28.3185 31.1313 28.9749 30.4749C29.6313 29.8185 30 28.9283 30 28Z" fill="white"/>
</svg>
