<svg width="36" height="35" viewBox="0 0 36 35" fill="none" xmlns="http://www.w3.org/2000/svg">
<path d="M26.75 9H30.25C32.183 9 33.75 10.567 33.75 12.5V23C33.75 24.933 32.183 26.5 30.25 26.5H26.75V33.5L19.75 26.5H12.75C11.7835 26.5 10.9085 26.1082 10.2751 25.4749M10.2751 25.4749L16.25 19.5H23.25C25.183 19.5 26.75 17.933 26.75 16V5.5C26.75 3.567 25.183 2 23.25 2H5.75C3.817 2 2.25 3.567 2.25 5.5V16C2.25 17.933 3.817 19.5 5.75 19.5H9.25V26.5L10.2751 25.4749Z" stroke="white" stroke-width="3" stroke-linecap="round" stroke-linejoin="round"/>
</svg>
