<svg width="38" height="38" viewBox="0 0 38 38" fill="none" xmlns="http://www.w3.org/2000/svg">
<path d="M35.601 17.3771L18.9997 27.3395L2.39846 17.3771C2.03838 17.1611 1.60721 17.0969 1.19982 17.1988C0.79243 17.3006 0.442183 17.5601 0.226131 17.9202C0.0100791 18.2803 -0.0540801 18.7115 0.0477678 19.1189C0.149616 19.5263 0.409128 19.8765 0.769214 20.0925L18.1859 30.5426C18.4321 30.6905 18.714 30.7687 19.0013 30.7687C19.2886 30.7687 19.5705 30.6905 19.8167 30.5426L37.2334 20.0925C37.5935 19.8765 37.853 19.5263 37.9548 19.1189C38.0567 18.7115 37.9925 18.2803 37.7765 17.9202C37.5604 17.5601 37.2102 17.3006 36.8028 17.1988C36.3954 17.0969 35.9642 17.1611 35.6041 17.3771H35.601Z" fill="white"/>
<path d="M35.601 24.6098L18.9997 34.5705L2.39846 24.6098C2.22016 24.5028 2.02254 24.432 1.81688 24.4014C1.61121 24.3708 1.40154 24.381 1.19982 24.4314C0.998097 24.4819 0.808285 24.5715 0.641219 24.6953C0.474153 24.8191 0.333104 24.9746 0.226126 25.1529C0.119148 25.3312 0.0483359 25.5288 0.0177323 25.7345C-0.0128713 25.9401 -0.00266686 26.1498 0.0477631 26.3515C0.149611 26.7589 0.409123 27.1092 0.76921 27.3252L18.1859 37.7752C18.4321 37.9232 18.714 38.0013 19.0013 38.0013C19.2886 38.0013 19.5704 37.9232 19.8167 37.7752L37.2334 27.3252C37.5935 27.1092 37.853 26.7589 37.9548 26.3515C38.0567 25.9441 37.9925 25.513 37.7765 25.1529C37.5604 24.7928 37.2102 24.5333 36.8028 24.4314C36.3954 24.3296 35.9642 24.3937 35.6041 24.6098H35.601Z" fill="white"/>
<path d="M19 23.3906C18.1459 23.3902 17.308 23.1576 16.5759 22.7177L0.767904 13.232C0.533804 13.0912 0.340104 12.8923 0.205632 12.6545C0.0711592 12.4167 0.000488281 12.1482 0.000488281 11.875C0.000488281 11.6019 0.0711592 11.3334 0.205632 11.0956C0.340104 10.8578 0.533804 10.6589 0.767904 10.5181L16.5759 1.03238C17.308 0.592577 18.1459 0.360229 19 0.360229C19.854 0.360229 20.692 0.592577 21.4241 1.03238L37.2321 10.5181C37.4662 10.6589 37.6599 10.8578 37.7943 11.0956C37.9288 11.3334 37.9995 11.6019 37.9995 11.875C37.9995 12.1482 37.9288 12.4167 37.7943 12.6545C37.6599 12.8923 37.4662 13.0912 37.2321 13.232L21.4241 22.7177C20.692 23.1576 19.8541 23.3902 19 23.3906ZM4.66132 11.875L18.2083 20.0023C18.4476 20.1454 18.7212 20.221 19 20.221C19.2788 20.221 19.5524 20.1454 19.7917 20.0023L33.3386 11.875L19.7917 3.7478C19.5524 3.60467 19.2788 3.52909 19 3.52909C18.7212 3.52909 18.4476 3.60467 18.2083 3.7478L4.66132 11.875Z" fill="white"/>
</svg>
