<svg width="44" height="35" viewBox="0 0 44 35" fill="none" xmlns="http://www.w3.org/2000/svg">
<path d="M24.1164 26.328H25.6164H24.1164ZM24.1164 8.63492H22.6164V8.63492L24.1164 8.63492ZM33.6107 7.07105L34.6714 6.01039V6.01039L33.6107 7.07105ZM41.1618 14.6221L42.2224 13.5614L42.2224 13.5614L41.1618 14.6221ZM4.21164 3.5H21.9048V0.5H4.21164V3.5ZM22.6164 4.21164V26.328H25.6164V4.21164H22.6164ZM3.5 26.328V4.21164H0.5V26.328H3.5ZM6.42328 27.0397H4.21164V30.0397H6.42328V27.0397ZM21.9048 27.0397H15.2698V30.0397H21.9048V27.0397ZM0.5 26.328C0.5 28.3779 2.16176 30.0397 4.21164 30.0397V27.0397C3.81861 27.0397 3.5 26.7211 3.5 26.328H0.5ZM22.6164 26.328C22.6164 26.7211 22.2978 27.0397 21.9048 27.0397V30.0397C23.9546 30.0397 25.6164 28.3779 25.6164 26.328H22.6164ZM21.9048 3.5C22.2978 3.5 22.6164 3.81861 22.6164 4.21164H25.6164C25.6164 2.16176 23.9546 0.5 21.9048 0.5V3.5ZM4.21164 0.5C2.16176 0.5 0.5 2.16176 0.5 4.21164H3.5C3.5 3.81861 3.81861 3.5 4.21164 3.5V0.5ZM25.6164 26.328L25.6164 8.63492L22.6164 8.63492L22.6164 26.328H25.6164ZM26.328 7.92328H32.0469V4.92328H26.328V7.92328ZM40.3095 16.1859V26.328H43.3095V16.1859H40.3095ZM32.5501 8.13171L40.1011 15.6827L42.2224 13.5614L34.6714 6.01039L32.5501 8.13171ZM28.5397 27.0397H26.328V30.0397H28.5397V27.0397ZM39.5979 27.0397H37.3862V30.0397H39.5979V27.0397ZM43.3095 16.1859C43.3095 15.2015 42.9185 14.2575 42.2224 13.5614L40.1011 15.6827C40.2346 15.8162 40.3095 15.9972 40.3095 16.1859H43.3095ZM32.0469 7.92328C32.2356 7.92328 32.4166 7.99826 32.5501 8.13172L34.6714 6.01039C33.9753 5.31433 33.0313 4.92328 32.0469 4.92328V7.92328ZM22.6164 26.328C22.6164 28.3779 24.2782 30.0397 26.328 30.0397V27.0397C25.935 27.0397 25.6164 26.7211 25.6164 26.328H22.6164ZM40.3095 26.328C40.3095 26.7211 39.9909 27.0397 39.5979 27.0397V30.0397C41.6478 30.0397 43.3095 28.3779 43.3095 26.328H40.3095ZM25.6164 8.63492C25.6164 8.24189 25.935 7.92328 26.328 7.92328V4.92328C24.2782 4.92328 22.6164 6.58504 22.6164 8.63492H25.6164ZM13.7698 28.5397C13.7698 30.1542 12.461 31.463 10.8466 31.463V34.463C14.1179 34.463 16.7698 31.811 16.7698 28.5397H13.7698ZM10.8466 31.463C9.23208 31.463 7.92328 30.1542 7.92328 28.5397H4.92328C4.92328 31.811 7.57522 34.463 10.8466 34.463V31.463ZM7.92328 28.5397C7.92328 26.9252 9.23208 25.6164 10.8466 25.6164V22.6164C7.57522 22.6164 4.92328 25.2683 4.92328 28.5397H7.92328ZM10.8466 25.6164C12.461 25.6164 13.7698 26.9252 13.7698 28.5397H16.7698C16.7698 25.2683 14.1179 22.6164 10.8466 22.6164V25.6164ZM35.8862 28.5397C35.8862 30.1542 34.5774 31.463 32.963 31.463V34.463C36.2343 34.463 38.8862 31.811 38.8862 28.5397H35.8862ZM32.963 31.463C31.3485 31.463 30.0397 30.1542 30.0397 28.5397H27.0397C27.0397 31.811 29.6916 34.463 32.963 34.463V31.463ZM30.0397 28.5397C30.0397 26.9252 31.3485 25.6164 32.963 25.6164V22.6164C29.6916 22.6164 27.0397 25.2683 27.0397 28.5397H30.0397ZM32.963 25.6164C34.5774 25.6164 35.8862 26.9252 35.8862 28.5397H38.8862C38.8862 25.2683 36.2343 22.6164 32.963 22.6164V25.6164Z" fill="white"/>
</svg>
