<svg width="28" height="36" viewBox="0 0 28 36" fill="none" xmlns="http://www.w3.org/2000/svg">
<path d="M8.75001 7.75C7.92158 7.75 7.25001 8.42157 7.25001 9.25C7.25001 10.0784 7.92158 10.75 8.75001 10.75V7.75ZM19.25 10.75C20.0784 10.75 20.75 10.0784 20.75 9.25C20.75 8.42157 20.0784 7.75 19.25 7.75V10.75ZM17.75 26.75C17.75 27.5784 18.4216 28.25 19.25 28.25C20.0784 28.25 20.75 27.5784 20.75 26.75H17.75ZM20.75 21.5C20.75 20.6716 20.0784 20 19.25 20C18.4216 20 17.75 20.6716 17.75 21.5H20.75ZM14 25.25C13.1716 25.25 12.5 25.9216 12.5 26.75C12.5 27.5784 13.1716 28.25 14 28.25V25.25ZM14.0175 28.25C14.8459 28.25 15.5175 27.5784 15.5175 26.75C15.5175 25.9216 14.8459 25.25 14.0175 25.25V28.25ZM8.75001 25.25C7.92158 25.25 7.25001 25.9216 7.25001 26.75C7.25001 27.5784 7.92158 28.25 8.75001 28.25V25.25ZM8.76751 28.25C9.59593 28.25 10.2675 27.5784 10.2675 26.75C10.2675 25.9216 9.59593 25.25 8.76751 25.25V28.25ZM8.75001 20C7.92158 20 7.25001 20.6716 7.25001 21.5C7.25001 22.3284 7.92158 23 8.75001 23V20ZM8.76751 23C9.59593 23 10.2675 22.3284 10.2675 21.5C10.2675 20.6716 9.59593 20 8.76751 20V23ZM14 20C13.1716 20 12.5 20.6716 12.5 21.5C12.5 22.3284 13.1716 23 14 23V20ZM14.0175 23C14.8459 23 15.5175 22.3284 15.5175 21.5C15.5175 20.6716 14.8459 20 14.0175 20V23ZM19.25 14.75C18.4216 14.75 17.75 15.4216 17.75 16.25C17.75 17.0784 18.4216 17.75 19.25 17.75V14.75ZM19.2675 17.75C20.0959 17.75 20.7675 17.0784 20.7675 16.25C20.7675 15.4216 20.0959 14.75 19.2675 14.75V17.75ZM14 14.75C13.1716 14.75 12.5 15.4216 12.5 16.25C12.5 17.0784 13.1716 17.75 14 17.75V14.75ZM14.0175 17.75C14.8459 17.75 15.5175 17.0784 15.5175 16.25C15.5175 15.4216 14.8459 14.75 14.0175 14.75V17.75ZM8.75001 14.75C7.92158 14.75 7.25001 15.4216 7.25001 16.25C7.25001 17.0784 7.92158 17.75 8.75001 17.75V14.75ZM8.76751 17.75C9.59593 17.75 10.2675 17.0784 10.2675 16.25C10.2675 15.4216 9.59593 14.75 8.76751 14.75V17.75ZM5.25 3.75H22.75V0.75H5.25V3.75ZM24.75 5.75V30.25H27.75V5.75H24.75ZM22.75 32.25H5.25V35.25H22.75V32.25ZM3.25 30.25V5.75H0.25V30.25H3.25ZM5.25 32.25C4.14543 32.25 3.25 31.3546 3.25 30.25H0.25C0.25 33.0114 2.48858 35.25 5.25 35.25V32.25ZM24.75 30.25C24.75 31.3546 23.8546 32.25 22.75 32.25V35.25C25.5114 35.25 27.75 33.0114 27.75 30.25H24.75ZM22.75 3.75C23.8546 3.75 24.75 4.64543 24.75 5.75H27.75C27.75 2.98858 25.5114 0.75 22.75 0.75V3.75ZM5.25 0.75C2.48858 0.75 0.25 2.98858 0.25 5.75H3.25C3.25 4.64543 4.14543 3.75 5.25 3.75V0.75ZM8.75001 10.75H19.25V7.75H8.75001V10.75ZM20.75 26.75V21.5H17.75V26.75H20.75ZM14 28.25H14.0175V25.25H14V28.25ZM8.75001 28.25H8.76751V25.25H8.75001V28.25ZM8.75001 23H8.76751V20H8.75001V23ZM14 23H14.0175V20H14V23ZM19.25 17.75H19.2675V14.75H19.25V17.75ZM14 17.75H14.0175V14.75H14V17.75ZM8.75001 17.75H8.76751V14.75H8.75001V17.75Z" fill="white"/>
</svg>
