<svg width="42" height="42" viewBox="0 0 42 42" fill="none" xmlns="http://www.w3.org/2000/svg">
<path d="M6.125 42.3H35.875C37.4879 42.3 38.8 40.9879 38.8 39.375V14.875C38.8 14.2263 38.2737 13.7 37.625 13.7H4.375C3.72631 13.7 3.2 14.2263 3.2 14.875V39.375C3.2 40.9879 4.51206 42.3 6.125 42.3ZM5.55 39.375V16.05H36.45V39.375C36.45 39.6923 36.1923 39.95 35.875 39.95H6.125C5.80769 39.95 5.55 39.6923 5.55 39.375Z" fill="white" stroke="white" stroke-width="0.6"/>
<path d="M9.625 42.3H32.375C33.0237 42.3 33.55 41.7737 33.55 41.125V20.125C33.55 19.4763 33.0237 18.95 32.375 18.95H9.625C8.97631 18.95 8.45 19.4763 8.45 20.125V41.125C8.45 41.7737 8.97631 42.3 9.625 42.3ZM31.2 21.3V39.95H10.8V21.3H31.2Z" fill="white" stroke="white" stroke-width="0.6"/>
<path d="M32.375 29.2H9.625C9.142 29.2 8.75 28.5392 8.75 27.725C8.75 26.9108 9.142 26.25 9.625 26.25H32.375C32.858 26.25 33.25 26.9108 33.25 27.725C33.25 28.5392 32.858 29.2 32.375 29.2Z" fill="white"/>
<path d="M32.375 36.2H9.625C9.142 36.2 8.75 35.5392 8.75 34.725C8.75 33.9108 9.142 33.25 9.625 33.25H32.375C32.858 33.25 33.25 33.9108 33.25 34.725C33.25 35.5392 32.858 36.2 32.375 36.2Z" fill="white"/>
<path d="M0.203353 13.9094L0.20291 13.9097C-0.217949 14.2036 -0.398409 14.7349 -0.246043 15.2248C-0.0931356 15.7164 0.362796 16.0499 0.875172 16.0499H41.1252C41.6399 16.0499 42.0898 15.7127 42.2441 15.2264C42.3997 14.7362 42.2156 14.203 41.7957 13.9097L41.7952 13.9094L21.6702 -0.0905731L21.6696 -0.0910102C21.2659 -0.370314 20.7327 -0.370314 20.329 -0.091011L20.3284 -0.0905723L0.203353 13.9094ZM37.3791 13.6999H4.62127L21.0002 2.30615L37.3791 13.6999Z" fill="white" stroke="white" stroke-width="0.6"/>
</svg>
