<svg width="88" height="82" viewBox="0 0 88 82" fill="none" xmlns="http://www.w3.org/2000/svg">
<rect y="56" width="88" height="26" rx="1" fill="#F7B70B"/>
<g clip-path="url(#clip0)">
<path d="M60.9262 0H18.6449C15.1477 0 12.3027 2.89616 12.3027 6.45631V58.3939C12.3027 61.196 14.0754 63.5624 16.5309 64.4538V21.1512C16.5309 18.2783 17.6313 15.5755 19.6277 13.5432L25.6065 7.45676C27.6029 5.42445 30.2579 4.30421 33.08 4.30421H66.879C66.0033 1.80461 63.6787 0 60.9262 0Z" fill="#171717"/>
<path d="M69.3832 8.63672C50.7048 8.63672 56.1407 8.63672 37.6723 8.63672V23.6727C37.6723 24.8621 36.7266 25.8535 35.5582 25.8535H20.7598V67.0019C20.7598 70.5629 23.6039 73.4582 27.102 73.4582H69.3832C72.8799 73.4582 75.6972 70.5629 75.6972 67.0019V15.0643C75.6972 11.5048 72.8799 8.63672 69.3832 8.63672ZM65.1551 60.5456H31.3301C30.1617 60.5456 29.216 59.5829 29.216 58.3935C29.216 57.2041 30.1617 56.2414 31.3301 56.2414H65.1551C66.3235 56.2414 67.2691 57.2041 67.2691 58.3935C67.2691 59.5829 66.3235 60.5456 65.1551 60.5456ZM65.1551 51.9372H31.3301C30.1617 51.9372 29.216 50.9745 29.216 49.7851C29.216 48.5957 30.1617 47.633 31.3301 47.633H65.1551C66.3235 47.633 67.2691 48.5957 67.2691 49.7851C67.2691 50.9745 66.3235 51.9372 65.1551 51.9372ZM65.1551 43.3288H31.3301C30.1617 43.3288 29.216 42.3661 29.216 41.1767C29.216 39.9873 30.1617 39.0246 31.3301 39.0246H65.1551C66.3235 39.0246 67.2691 39.9873 67.2691 41.1767C67.2691 42.3661 66.3235 43.3288 65.1551 43.3288ZM65.1551 34.7204H31.3301C30.1617 34.7204 29.216 33.7577 29.216 32.5683C29.216 31.3789 30.1617 30.4162 31.3301 30.4162H65.1551C66.3235 30.4162 67.2691 31.3789 67.2691 32.5683C67.2691 33.7577 66.3235 34.7204 65.1551 34.7204Z" fill="#171717"/>
<path d="M33.0808 8.6084C31.3879 8.6084 29.7941 9.281 28.5967 10.5L22.6179 16.5864C21.2084 18.0211 20.7598 19.6255 20.7598 21.521H33.4441V8.6084H33.0808Z" fill="#171717"/>
</g>
<defs>
<clipPath id="clip0">
<rect width="72.16" height="73.4585" fill="white" transform="translate(7.91992)"/>
</clipPath>
</defs>
</svg>
