<svg width="88" height="82" viewBox="0 0 88 82" fill="none" xmlns="http://www.w3.org/2000/svg">
<rect y="56" width="88" height="26" rx="1" fill="#F7B70B"/>
<g clip-path="url(#clip0)">
<path d="M78.2646 25.9911L74.8625 25.5157C74.2142 22.9181 73.2086 20.4496 71.8568 18.1433L73.8377 15.4547C74.4684 14.5987 74.3851 13.3996 73.6405 12.6416L67.6611 6.55447C66.9166 5.7965 65.7386 5.71199 64.8975 6.35404L62.2567 8.37056C59.9912 6.9945 57.5665 5.97039 55.0144 5.31084L54.5473 1.84724C54.4029 0.781663 53.5082 -0.0044289 52.4555 1.87788e-05H44.0003C42.9491 1.87788e-05 42.0557 0.787689 41.9082 1.8471L41.4396 5.31199C38.8879 5.97197 36.4631 6.99594 34.1988 8.37041L31.558 6.35389C30.7172 5.71185 29.5392 5.7965 28.7947 6.55432L22.8151 12.6415C22.0705 13.3995 21.9875 14.5986 22.6182 15.4546L24.5991 18.1431C23.3549 20.2614 22.2801 22.7654 21.5932 25.5155L18.332 25.991C17.2912 26.1412 16.5176 27.0507 16.5176 28.1207V36.7281C16.5145 37.8013 17.2898 38.7092 18.332 38.8578L21.5947 39.3346C21.7173 39.8236 21.9235 40.2993 22.0773 40.7846L27.1485 35.6218C27.0649 29.8411 29.3676 24.2321 33.2793 20.2502C37.2164 16.2422 42.447 14.0205 48.0032 13.9967C50.5054 13.9834 52.8828 15.5074 53.8876 17.9781C54.876 20.3929 54.3387 23.1601 52.5139 25.0177L46.838 30.7956L47.3358 33.3324L49.8279 33.8391L55.5037 28.0612C57.3284 26.2036 60.0467 25.6568 62.4291 26.6672C64.8229 27.6731 66.3386 30.0869 66.3297 32.6503C66.3062 38.3093 64.1237 43.6341 60.1868 47.642C56.3661 51.5314 50.8822 53.9699 45.0866 53.8831L40.0161 59.0449C40.4919 59.2017 40.9608 59.4126 41.4393 59.537L41.9079 62.8584C42.0524 63.9151 42.9489 64.7055 44 64.7055H52.4555C53.5066 64.7055 54.4 63.9178 54.5475 62.8584L55.0145 59.5383C57.3446 58.9354 59.9678 57.8717 62.2569 56.4786L64.8976 58.4951C65.7386 59.1371 66.9167 59.0525 67.6613 58.2946L73.6407 52.2075C74.3853 51.4495 74.4686 50.2504 73.8379 49.3944L71.857 46.7059C73.2072 44.4011 74.2132 41.9328 74.8611 39.3348L78.2647 38.858C79.3057 38.7078 80.0794 37.7983 80.0794 36.7283V28.1209C80.0821 27.048 79.3069 26.1369 78.2646 25.9911Z" fill="#171717"/>
<path d="M8.53903 63.6978C8.84021 64.0044 11.8299 67.0479 11.5287 66.7413L34.7747 43.077C35.6004 42.2365 36.9388 42.2365 37.7644 43.077C38.59 43.9175 38.5901 45.28 37.7644 46.1208L14.5187 69.7846C14.8196 70.0912 17.8093 73.1347 17.5084 72.8284C18.334 73.6689 19.6725 73.6689 20.4981 72.8284L43.4478 49.4656C48.5336 50.0523 53.5335 48.3288 57.1976 44.599C60.342 41.3979 62.0837 37.1491 62.1029 32.6357C62.1057 31.7648 61.5933 30.9727 60.802 30.6398C60.0108 30.3041 59.0998 30.4882 58.4942 31.1051L51.2183 38.5117L43.7439 36.9901L42.249 29.3813L49.5249 21.9745C50.1308 21.3577 50.3118 20.4305 49.982 19.6251C49.6535 18.818 48.8753 18.2964 48.0214 18.3008C43.5878 18.3202 39.4142 20.0929 36.2696 23.2941C32.6057 27.024 30.9127 32.1143 31.489 37.2914L8.53903 60.6542C7.71355 61.4947 7.71355 62.8573 8.53903 63.6978Z" fill="#171717"/>
</g>
<defs>
<clipPath id="clip0">
<rect width="72.16" height="73.4585" fill="white" transform="translate(7.91992)"/>
</clipPath>
</defs>
</svg>
