<svg width="32" height="32" viewBox="0 0 32 32" fill="none" xmlns="http://www.w3.org/2000/svg">
<g clip-path="url(#clip0)">
<path d="M30.7611 16.0005L31.7613 12.9107C32.5027 10.6204 31.4684 8.13287 29.3297 7.04025L26.4378 5.56269L24.9602 2.6707C23.865 0.527076 21.3745 -0.500547 19.0897 0.239139L16 1.23932L12.9102 0.239139C10.6199 -0.502234 8.13238 0.532076 7.03976 2.67076L5.5622 5.56269L2.6702 7.04025C0.526831 8.13537 -0.501105 10.6255 0.238644 12.9107L1.23883 16.0004L0.238644 19.0902C-0.50273 21.3805 0.531643 23.868 2.67026 24.9607L5.5622 26.4383L7.03976 29.3303C8.13507 31.474 10.6256 32.5015 12.9102 31.7618L16 30.7616L19.0897 31.7618C21.3765 32.5021 23.8659 31.472 24.9602 29.3302L26.4378 26.4383L29.3298 24.9607C31.4731 23.8656 32.5011 21.3755 31.7613 19.0902L30.7611 16.0005ZM28.4767 23.291L25.3145 24.9066C25.1388 24.9963 24.9959 25.1392 24.9062 25.3149L23.2905 28.4771C22.6112 29.8065 21.0875 30.4377 19.6672 29.978L16.2887 28.8843C16.1002 28.8233 15.8982 28.8238 15.7112 28.8845L12.3327 29.9781C10.9126 30.4376 9.38869 29.8066 8.70944 28.4773L7.09382 25.315C7.00413 25.1393 6.86126 24.9965 6.68551 24.9067L3.52333 23.2911C2.19389 22.6118 1.5627 21.088 2.02239 19.6678L3.11608 16.2893C3.17689 16.1016 3.17689 15.8995 3.11608 15.7118L2.02239 12.3333C1.5627 10.9131 2.19389 9.38925 3.52326 8.71L6.68551 7.09438C6.86119 7.00469 7.00407 6.86181 7.09382 6.68606L8.70944 3.52388C9.38875 2.19445 10.9125 1.56326 12.3327 2.02295L15.7112 3.11663C15.899 3.17745 16.101 3.17745 16.2887 3.11663L19.6672 2.02282C21.0874 1.56339 22.6113 2.19432 23.2905 3.5237L24.9062 6.68594C24.9958 6.86163 25.1387 7.0045 25.3145 7.09425L28.4767 8.70987C29.8061 9.38918 30.4373 10.9129 29.9776 12.3332L28.8839 15.7117C28.8231 15.8994 28.8231 16.1015 28.8839 16.2892L29.9776 19.6677C30.4373 21.0879 29.8061 22.6117 28.4767 23.291Z" fill="#34599F"/>
<path d="M12.4647 15.9712C12.8886 15.7872 13.1446 15.3633 13.1446 14.7154C13.1446 13.5796 12.3448 13.2917 11.5449 13.2917H9.90526C9.63333 13.2917 9.36133 13.4197 9.36133 13.6757V18.7628C9.36133 18.9628 9.56933 19.1387 9.90526 19.1387H11.6809C12.5847 19.1387 13.2886 18.6828 13.2886 17.419V17.251C13.2886 16.4511 12.9526 16.1552 12.4647 15.9712ZM10.6011 14.3796H11.4409C11.7449 14.3796 11.8969 14.6595 11.8969 14.9394C11.8969 15.2114 11.7449 15.4914 11.4409 15.4914H10.6011V14.3796ZM12.0408 17.315C12.0408 17.8269 11.8009 18.0509 11.401 18.0509V18.0509H10.6011V16.4512H11.401C11.8009 16.4512 12.0408 16.6431 12.0408 17.1871V17.315Z" fill="#34599F"/>
<path d="M17.3195 13.2917C16.9995 13.2917 16.6956 13.4037 16.6956 13.6677H16.6955V17.299C16.6955 17.8429 16.4076 18.0989 15.9277 18.0989C15.4478 18.0989 15.1599 17.8429 15.1599 17.299V13.6677C15.1599 13.4037 14.8399 13.2917 14.536 13.2917C14.216 13.2917 13.9121 13.4037 13.9121 13.6677V17.299C13.9121 18.6747 14.792 19.1866 15.9277 19.1866C17.0555 19.1866 17.9433 18.6747 17.9433 17.299V13.6677C17.9433 13.4037 17.6234 13.2917 17.3195 13.2917Z" fill="#34599F"/>
<path d="M22.1821 13.2917C21.9821 13.2917 21.9021 13.3717 21.8221 13.5237L20.7103 15.5793L19.5906 13.5237C19.5026 13.3717 19.4306 13.2917 19.2306 13.2917C18.8867 13.2917 18.3828 13.5077 18.3828 13.8036C18.3828 13.8276 18.3828 13.8596 18.3988 13.8916L20.0544 16.6351C20.0704 16.6591 20.0864 16.6991 20.0864 16.7471V18.7547C20.0864 19.0106 20.3984 19.1386 20.7103 19.1386C21.0222 19.1386 21.3342 19.0106 21.3342 18.7547V16.7471C21.3342 16.6991 21.3502 16.6591 21.3662 16.6351L23.0139 13.8916C23.0299 13.8596 23.0299 13.8276 23.0299 13.8036C23.0299 13.5077 22.526 13.2917 22.1821 13.2917Z" fill="#34599F"/>
</g>
<defs>
<clipPath id="clip0">
<rect width="32" height="32" fill="white"/>
</clipPath>
</defs>
</svg>
