<svg width="36" height="36" viewBox="0 0 36 36" fill="none" xmlns="http://www.w3.org/2000/svg">
<path fill-rule="evenodd" clip-rule="evenodd" d="M17.9984 35.5999C27.7187 35.5999 35.5984 27.7201 35.5984 17.9999C35.5984 8.27969 27.7187 0.399902 17.9984 0.399902C8.27823 0.399902 0.398438 8.27969 0.398438 17.9999C0.398438 27.7201 8.27823 35.5999 17.9984 35.5999ZM26.1541 15.1555C27.0132 14.2964 27.0132 12.9034 26.1541 12.0443C25.2949 11.1851 23.902 11.1851 23.0428 12.0443L15.7984 19.2886L12.9541 16.4443C12.0949 15.5851 10.702 15.5851 9.8428 16.4443C8.98365 17.3034 8.98365 18.6964 9.8428 19.5555L14.2428 23.9555C15.102 24.8147 16.4949 24.8147 17.3541 23.9555L26.1541 15.1555Z" fill="white"/>
</svg>
