<svg width="32" height="32" viewBox="0 0 32 32" fill="none" xmlns="http://www.w3.org/2000/svg">
<g clip-path="url(#clip0)">
<path d="M17.0667 8.5332C16.4779 8.5332 16 9.01107 16 9.59987C16 10.1887 16.4779 10.6665 17.0667 10.6665C19.4197 10.6665 21.3333 12.5801 21.3333 14.9332C21.3333 15.522 21.8112 15.9999 22.4 15.9999C22.9888 15.9999 23.4667 15.522 23.4667 14.9332C23.4667 11.4047 20.5952 8.5332 17.0667 8.5332Z" fill="#138FE9"/>
<path d="M17.0667 4.2666C16.4779 4.2666 16 4.74447 16 5.33327C16 5.92207 16.4779 6.39994 17.0667 6.39994C21.7728 6.39994 25.6 10.2271 25.6 14.9333C25.6 15.5221 26.0779 15.9999 26.6667 15.9999C27.2555 15.9999 27.7333 15.5221 27.7333 14.9333C27.7333 9.05167 22.9483 4.2666 17.0667 4.2666Z" fill="#138FE9"/>
<path d="M17.0667 0C16.4779 0 16 0.477867 16 1.06667C16 1.65547 16.4779 2.13333 17.0667 2.13333C24.1259 2.13333 29.8667 7.87413 29.8667 14.9333C29.8667 15.5221 30.3445 16 30.9333 16C31.5221 16 32 15.5221 32 14.9333C32 6.69867 25.2992 0 17.0667 0Z" fill="#138FE9"/>
<path d="M28.8 23.4669C25.7024 23.4669 22.752 22.7927 20.032 21.4637C19.776 21.3357 19.4816 21.3207 19.2149 21.4146C18.9461 21.5085 18.7264 21.7047 18.6027 21.9586L16.9259 25.4295C12.5867 23.0082 8.99413 19.4178 6.57493 15.0786L10.0437 13.3975C10.2997 13.2738 10.4939 13.0541 10.5877 12.7853C10.6795 12.5186 10.6624 12.2242 10.5365 11.9682C9.20747 9.24821 8.53333 6.29781 8.53333 3.20021C8.53333 2.61141 8.05547 2.13354 7.46667 2.13354H1.06667C0.477867 2.13354 0 2.61141 0 3.20021C0 19.0807 12.9195 32.0002 28.8 32.0002C29.3888 32.0002 29.8667 31.5223 29.8667 30.9335V24.5335C29.8667 23.9447 29.3888 23.4669 28.8 23.4669Z" fill="#138FE9"/>
</g>
<defs>
<clipPath id="clip0">
<rect width="32" height="32" fill="white"/>
</clipPath>
</defs>
</svg>
