<svg width="26" height="32" viewBox="0 0 26 32" fill="none" xmlns="http://www.w3.org/2000/svg">
<path d="M12.3436 0.00814456C5.96873 0.231221 0.672757 5.1914 0.060924 11.5229C-0.0640741 12.7891 0.00829337 14.0161 0.231974 15.1905C0.231974 15.1905 0.251711 15.3283 0.317499 15.5907C0.514864 16.4699 0.810912 17.3229 1.17933 18.1233C2.4622 21.1545 5.42926 26.2262 12.0871 31.7441C12.4949 32.0853 13.0936 32.0853 13.5081 31.7441C20.1659 26.2328 23.1329 21.1611 24.4224 18.1167C24.7974 17.3163 25.0869 16.4699 25.2842 15.5842C25.3434 15.3283 25.3697 15.1839 25.3697 15.1839C25.5211 14.3966 25.6 13.5896 25.6 12.7629C25.6 5.55882 19.6198 -0.247738 12.3436 0.00814456ZM12.7976 19.114C9.36341 19.114 6.58056 16.3387 6.58056 12.9138C6.58056 9.48891 9.36341 6.71357 12.7976 6.71357C16.2317 6.71357 19.0146 9.48891 19.0146 12.9138C19.0146 16.3387 16.2317 19.114 12.7976 19.114Z" fill="#E97A13"/>
</svg>
