<svg width="32" height="32" viewBox="0 0 32 32" fill="none" xmlns="http://www.w3.org/2000/svg">
<g clip-path="url(#clip0)">
<path d="M3.07137 11.1789C3.47616 11.4646 4.69637 12.3129 6.73204 13.7236C8.76778 15.1343 10.3273 16.2204 11.4106 16.9822C11.5297 17.0657 11.7825 17.2472 12.1694 17.5269C12.5563 17.8069 12.8778 18.0331 13.1336 18.2057C13.3896 18.3782 13.6991 18.5717 14.0623 18.7859C14.4255 19 14.7678 19.1609 15.0892 19.2675C15.4107 19.375 15.7083 19.4282 15.982 19.4282H16H16.018C16.2918 19.4282 16.5895 19.3749 16.911 19.2675C17.2323 19.1609 17.5749 18.9998 17.9377 18.7859C18.3007 18.5715 18.6102 18.3781 18.8662 18.2057C19.1222 18.0331 19.4435 17.8069 19.8305 17.5269C20.2173 17.2469 20.4705 17.0657 20.5895 16.9822C21.6845 16.2204 24.4705 14.2858 28.9465 11.1786C29.8155 10.5717 30.5416 9.83939 31.1248 8.9822C31.7085 8.12539 32 7.22654 32 6.28617C32 5.50034 31.7171 4.82766 31.1516 4.26819C30.5861 3.7086 29.9164 3.42896 29.1428 3.42896H2.85702C1.94042 3.42896 1.23503 3.73843 0.740979 4.35738C0.246993 4.97646 0 5.75028 0 6.67877C0 7.42875 0.327489 8.24147 0.982155 9.11642C1.63676 9.99144 2.33339 10.679 3.07137 11.1789Z" fill="#138FE9"/>
<path d="M30.214 13.0892C26.3097 15.7318 23.345 17.7855 21.3215 19.25C20.6429 19.7498 20.0925 20.1399 19.6697 20.4195C19.247 20.6993 18.6847 20.985 17.9822 21.2765C17.28 21.5685 16.6255 21.714 16.0182 21.714H16H15.9821C15.375 21.714 14.7201 21.5685 14.0178 21.2765C13.3156 20.985 12.753 20.6993 12.3304 20.4195C11.9079 20.1399 11.3572 19.7498 10.6787 19.25C9.07149 18.0715 6.11321 16.0176 1.80375 13.0892C1.12501 12.6371 0.523819 12.1189 0 11.5356V25.7138C0 26.5 0.279641 27.1723 0.839237 27.7318C1.39871 28.2916 2.07145 28.5713 2.85721 28.5713H29.143C29.9286 28.5713 30.6012 28.2916 31.1608 27.7318C31.7205 27.1721 32 26.5001 32 25.7138V11.5356C31.488 12.1068 30.893 12.625 30.214 13.0892Z" fill="#138FE9"/>
</g>
<defs>
<clipPath id="clip0">
<rect width="32" height="32" fill="white"/>
</clipPath>
</defs>
</svg>
