<svg width="32" height="32" viewBox="0 0 32 32" fill="none" xmlns="http://www.w3.org/2000/svg">
<path fill-rule="evenodd" clip-rule="evenodd" d="M16.0002 28.7999C23.0694 28.7999 28.8002 23.0692 28.8002 16C28.8002 8.93071 23.0694 3.19995 16.0002 3.19995C8.93095 3.19995 3.2002 8.93071 3.2002 16C3.2002 23.0692 8.93095 28.7999 16.0002 28.7999ZM17.0002 9.59995C17.0002 9.04767 16.5525 8.59995 16.0002 8.59995C15.4479 8.59995 15.0002 9.04767 15.0002 9.59995V16C15.0002 16.2652 15.1056 16.5195 15.2931 16.7071L19.8186 21.2325C20.2091 21.6231 20.8423 21.6231 21.2328 21.2325C21.6233 20.842 21.6233 20.2089 21.2328 19.8183L17.0002 15.5857V9.59995Z" fill="#138FE9"/>
</svg>
