<svg width="37" height="42" viewBox="0 0 37 42" fill="none" xmlns="http://www.w3.org/2000/svg">
<path fill-rule="evenodd" clip-rule="evenodd" d="M34.558 6.38928L21.1099 0.625848C19.1629 -0.208615 16.9589 -0.208616 15.0118 0.625847L1.56376 6.38928C0.615094 6.79586 0 7.72867 0 8.76079V22.3139C0 27.3134 2.41446 32.0052 6.48274 34.9111L15.0615 41.0388C16.8557 42.3204 19.266 42.3204 21.0602 41.0388L29.639 34.9111C33.7073 32.0052 36.1217 27.3134 36.1217 22.3139V8.76079C36.1217 7.72867 35.5066 6.79586 34.558 6.38928ZM27.7534 16.3625C28.6159 15.2844 28.4411 13.7111 27.3629 12.8486C26.2848 11.9861 24.7116 12.1609 23.849 13.239L15.2734 23.9586L12.0882 20.7734C11.1119 19.7971 9.52901 19.7971 8.5527 20.7734C7.57639 21.7497 7.57639 23.3326 8.5527 24.3089L13.3179 29.0742C14.5823 30.3385 16.6649 30.2231 17.7819 28.8269L27.7534 16.3625Z" fill="white"/>
</svg>
