<svg width="36" height="44" viewBox="0 0 36 44" fill="none" xmlns="http://www.w3.org/2000/svg">
<path fill-rule="evenodd" clip-rule="evenodd" d="M36 26C36 35.9411 27.9411 44 18 44C8.05887 44 0 35.9411 0 26C0 16.0589 8.05887 8 18 8C27.9411 8 36 16.0589 36 26ZM18 37C24.0751 37 29 32.0751 29 26C29 19.9249 24.0751 15 18 15C11.9249 15 7 19.9249 7 26C7 32.0751 11.9249 37 18 37ZM18 40C25.732 40 32 33.732 32 26C32 18.268 25.732 12 18 12C10.268 12 4 18.268 4 26C4 33.732 10.268 40 18 40ZM19.5 20C19.5 19.1716 18.8284 18.5 18 18.5C17.1716 18.5 16.5 19.1716 16.5 20V26C16.5 26.8284 17.1716 27.5 18 27.5C18.8284 27.5 19.5 26.8284 19.5 26V20Z" fill="white"/>
<path d="M29 13L32 10" stroke="white" stroke-width="4" stroke-linecap="round"/>
<path d="M14.1363 2.74118C14.3642 2.52855 14.8664 2.34066 15.565 2.20665C16.2635 2.07264 17.1195 2 18 2C18.8805 2 19.7365 2.07264 20.435 2.20665C21.1336 2.34066 21.6358 2.52855 21.8637 2.74118" stroke="white" stroke-width="4" stroke-linecap="round"/>
</svg>
