<svg width="42" height="43" viewBox="0 0 42 43" fill="none" xmlns="http://www.w3.org/2000/svg">
<path d="M40.3408 24.4518C39.3003 23.9316 38.7801 22.8911 38.7801 21.5905V21.0702C38.7801 20.0297 39.3003 18.9892 40.3408 18.4689C41.9016 17.6886 42.4219 15.6075 41.3814 14.0467L37.4795 7.02345C36.9593 5.98295 35.9187 5.4626 34.8782 5.4626C34.358 5.4626 33.8375 5.46263 33.3172 5.98288C32.2767 6.50314 31.2363 6.50314 30.1958 5.98288C29.9357 5.98288 29.9358 5.72282 29.6757 5.72282C28.6352 5.20257 28.1147 4.16206 28.1147 3.12155C28.1147 1.30067 26.8142 0 24.9933 0H16.9294C15.1085 0 13.8077 1.30067 13.8077 3.12155C13.8077 4.16206 13.2875 5.20257 12.247 5.72282C11.9869 5.72282 11.987 5.98288 11.7269 5.98288C11.2066 6.24301 10.6864 6.50317 10.1662 6.50317C9.64594 6.50317 9.12543 6.24301 8.60518 5.98288C7.04442 5.2025 5.2236 5.72282 4.44322 7.02345L0.541315 14.0467C-0.239065 15.6075 0.281252 17.4284 1.58189 18.4689C2.62239 18.9892 3.14258 20.0297 3.14258 21.0702V21.5905C3.14258 22.631 2.62239 23.6714 1.58189 24.4518C0.0211251 25.2322 -0.499192 27.3133 0.541315 28.6139L4.44322 35.6374C4.96347 36.6779 6.00398 37.1981 7.04448 37.1981C7.56474 37.1981 8.08493 37.1981 8.60518 36.6778C9.64569 36.1576 10.6864 36.1576 11.7269 36.6778C11.987 36.6778 11.9869 36.938 12.247 36.938C13.2875 37.4583 13.8077 38.4988 13.8077 39.5393C13.8077 41.3602 15.1085 42.6607 16.9294 42.6607H24.9933C26.8142 42.6607 28.1147 41.3602 28.1147 39.5393C28.1147 38.4988 28.6352 37.4583 29.6757 36.938C29.9358 36.938 29.9357 36.6778 30.1958 36.6778C30.7161 36.4177 31.2363 36.1575 31.7565 36.1575C32.2768 36.1575 32.797 36.1576 33.3172 36.6778C34.878 37.4582 36.6991 36.938 37.7396 35.6374L41.6415 28.6139C42.4219 27.3133 41.9016 25.4923 40.3408 24.4518ZM20.8313 27.8336C17.4497 27.8336 14.5882 24.9721 14.5882 21.5905C14.5882 18.2088 17.4497 15.3474 20.8313 15.3474C24.213 15.3474 27.0744 18.2088 27.0744 21.5905C27.0744 24.9721 24.4731 27.8336 20.8313 27.8336Z" fill="white"/>
</svg>
