<svg width="42" height="37" viewBox="0 0 42 37" fill="none" xmlns="http://www.w3.org/2000/svg">
<path d="M15.75 32.8125C15.75 34.9871 13.9871 36.75 11.8125 36.75C9.63788 36.75 7.875 34.9871 7.875 32.8125C7.875 30.6379 9.63788 28.875 11.8125 28.875C13.9871 28.875 15.75 30.6379 15.75 32.8125Z" fill="white"/>
<path d="M34.125 32.8125C34.125 34.9871 32.3621 36.75 30.1875 36.75C28.0129 36.75 26.25 34.9871 26.25 32.8125C26.25 30.6379 28.0129 28.875 30.1875 28.875C32.3621 28.875 34.125 30.6379 34.125 32.8125Z" fill="white"/>
<path d="M2.625 0C1.17525 0 0 1.17525 0 2.625V28.875C0 30.3247 1.17525 31.5 2.625 31.5H5.38127C5.98932 28.5046 8.63762 26.25 11.8125 26.25C14.9874 26.25 17.6357 28.5046 18.2437 31.5H21C22.4497 31.5 23.625 30.3247 23.625 28.875V2.625C23.625 1.17525 22.4497 0 21 0H2.625Z" fill="white"/>
<path d="M31.5 7.875C30.0503 7.875 28.875 9.05025 28.875 10.5V26.3813C29.2991 26.2952 29.738 26.25 30.1875 26.25C33.3624 26.25 36.0107 28.5046 36.6187 31.5H39.375C40.8247 31.5 42 30.3247 42 28.875V15.75C42 15.0538 41.7234 14.3861 41.2312 13.8938L35.9812 8.64384C35.4889 8.15156 34.8212 7.875 34.125 7.875H31.5Z" fill="white"/>
</svg>
