<svg width="81" height="81" viewBox="0 0 81 81" fill="none" xmlns="http://www.w3.org/2000/svg">
<g clip-path="url(#clip0)">
<path d="M68.2737 33.8371C67.8766 33.381 67.7153 32.7791 67.8312 32.1856L68.9056 26.6844C69.5037 23.6214 67.5899 20.6745 64.5484 19.9751L59.0859 18.719C58.4966 18.5836 58.0124 18.1913 57.7573 17.6432L55.393 12.5611C54.0766 9.7315 50.7955 8.47222 47.9244 9.69405L42.7669 11.8887C42.2102 12.1254 41.5882 12.0927 41.0597 11.7991L36.1599 9.07749C33.4316 7.56199 30.0373 8.47134 28.4325 11.148L25.5499 15.9553C25.2389 16.474 24.7165 16.813 24.1162 16.8865L18.5523 17.5646C15.4539 17.942 13.2431 20.6731 13.5178 23.7818L14.0113 29.365C14.0645 29.9673 13.8413 30.549 13.3988 30.9611L9.29615 34.7801C7.01185 36.9063 6.82797 40.4156 8.87748 42.7692L12.5584 46.9961C12.9555 47.4522 13.1168 48.0541 13.0009 48.6475L11.9265 54.1486C11.3283 57.2116 13.2422 60.1586 16.2836 60.8579L21.7461 62.114C22.3354 62.2495 22.8197 62.6418 23.0747 63.1898L25.439 68.272C26.6374 70.8479 29.463 72.1224 32.1267 71.4085C32.389 71.3382 32.6503 71.2484 32.9077 71.1388L38.0652 68.9442C38.6213 68.7072 39.2438 68.7402 39.7724 69.0338L44.6723 71.7554C46.0366 72.5132 47.5668 72.6648 48.9571 72.2921C50.347 71.9196 51.5973 71.023 52.3995 69.6849L55.2822 64.878C55.5932 64.3594 56.1158 64.0206 56.7159 63.9468L62.2798 63.2687C65.3785 62.8911 67.589 60.1602 67.3143 57.0515L66.8209 51.4683C66.7677 50.866 66.991 50.2842 67.4335 49.8722L71.5361 46.0532C73.8204 43.9269 74.0043 40.4176 71.9547 38.0641L68.2737 33.8371ZM28.6286 25.8409C32.3456 24.845 36.1799 27.0587 37.1759 30.7757C38.1719 34.4927 35.9581 38.327 32.2411 39.323C28.5242 40.3189 24.6898 38.1052 23.6939 34.3882C22.6979 30.6712 24.9116 26.8369 28.6286 25.8409ZM33.1821 56.7522C32.9193 57.2074 32.4969 57.513 32.0265 57.6391C31.5561 57.7651 31.0374 57.7118 30.5823 57.4489C29.672 56.9233 29.3601 55.7592 29.8856 54.8489L47.6497 24.0806C48.1752 23.1703 49.3394 22.8584 50.2497 23.3839C51.16 23.9095 51.4719 25.0736 50.9463 25.9839L33.1821 56.7522ZM52.2032 54.9922C48.4862 55.9881 44.6518 53.7744 43.6559 50.0574C42.6599 46.3405 44.8737 42.5061 48.5906 41.5102C52.3076 40.5142 56.142 42.728 57.1379 46.4449C58.1339 50.1619 55.9201 53.9962 52.2032 54.9922Z" fill="#EE8E35"/>
<path d="M34.8992 20.4821C23.5448 23.5245 16.7818 35.2374 19.8243 46.592C22.8668 57.9467 34.5794 64.7091 45.9346 61.6665C57.289 58.6241 64.0512 46.9114 61.0087 35.5568C57.9662 24.2021 46.2537 17.4398 34.8992 20.4821Z" fill="#EE8E35"/>
</g>
<defs>
<clipPath id="clip0">
<rect width="66" height="66" transform="matrix(0.965926 -0.258818 0.25882 0.965925 0 17.0819)" fill="white"/>
</clipPath>
</defs>
</svg>
