<svg width="40" height="36" viewBox="0 0 40 36" fill="none" xmlns="http://www.w3.org/2000/svg">
<path d="M39.9943 33.87L37.952 1.95963C37.8707 1.30605 37.3332 0.804462 36.6756 0.768314H28.932C28.259 0.766818 27.7005 1.2881 27.6556 1.95963L26.6345 17.5319H20.1673V12.5964C20.1506 11.8916 19.5657 11.334 18.861 11.3507C18.6129 11.3566 18.372 11.4346 18.1676 11.5753L11.3601 16.3831V12.5964C11.3433 11.8916 10.7584 11.334 10.0537 11.3507C9.80561 11.3566 9.5647 11.4346 9.36028 11.5753L0.510565 17.7872C0.189135 18.0282 0 18.4066 0 18.8083V33.955C0 34.66 0.571477 35.2315 1.27641 35.2315H38.7179C39.0757 35.2271 39.4153 35.0727 39.6539 34.806C39.9038 34.562 40.029 34.2175 39.9943 33.87ZM18.508 32.6786H9.74328V28.041H18.508V32.6786Z" fill="white"/>
</svg>
