<svg width="16" height="17" viewBox="0 0 16 17" fill="none" xmlns="http://www.w3.org/2000/svg">
<path opacity="0.5" fill-rule="evenodd" clip-rule="evenodd" d="M16 8.05639C16 12.4832 12.4183 16.0718 8 16.0718C3.58172 16.0718 0 12.4832 0 8.05639C0 3.62962 3.58172 0.0410156 8 0.0410156C12.4183 0.0410156 16 3.62962 16 8.05639ZM9 4.0487C9 4.60205 8.55228 5.05062 8 5.05062C7.44772 5.05062 7 4.60205 7 4.0487C7 3.49536 7.44772 3.04678 8 3.04678C8.55228 3.04678 9 3.49536 9 4.0487ZM7 7.05447C6.44772 7.05447 6 7.50304 6 8.05639C6 8.60973 6.44772 9.05831 7 9.05831V12.0641C7 12.6174 7.44772 13.066 8 13.066H9C9.55228 13.066 10 12.6174 10 12.0641C10 11.5107 9.55228 11.0622 9 11.0622V8.05639C9 7.50304 8.55228 7.05447 8 7.05447H7Z" fill="white"/>
</svg>
