<svg width="22" height="22" viewBox="0 0 22 22" fill="none" xmlns="http://www.w3.org/2000/svg">
<path d="M20.75 13.3601C17.7391 14.5788 14.4479 15.25 11 15.25C7.55208 15.25 4.2609 14.5788 1.25 13.3601M15.3333 5.50001V3.33334C15.3333 2.13672 14.3633 1.16667 13.1667 1.16667H8.83333C7.63672 1.16667 6.66667 2.13672 6.66667 3.33334V5.50001M11 12H11.0108M3.41667 20.6667H18.5833C19.78 20.6667 20.75 19.6966 20.75 18.5V7.66667C20.75 6.47006 19.78 5.50001 18.5833 5.50001H3.41667C2.22005 5.50001 1.25 6.47006 1.25 7.66667V18.5C1.25 19.6966 2.22005 20.6667 3.41667 20.6667Z" stroke="#E97A13" stroke-width="2" stroke-linecap="round" stroke-linejoin="round"/>
</svg>
