<svg width="26" height="22" viewBox="0 0 26 22" fill="none" xmlns="http://www.w3.org/2000/svg">
<path d="M19.6667 7.00001V4.33334C19.6667 2.86058 18.4728 1.66667 17 1.66667H3.66667C2.19391 1.66667 1 2.86058 1 4.33334V12.3333C1 13.8061 2.19391 15 3.66667 15H6.33333M9 20.3333H22.3333C23.8061 20.3333 25 19.1394 25 17.6667V9.66667C25 8.19391 23.8061 7.00001 22.3333 7.00001H9C7.52724 7.00001 6.33333 8.19391 6.33333 9.66667V17.6667C6.33333 19.1394 7.52724 20.3333 9 20.3333ZM18.3333 13.6667C18.3333 15.1394 17.1394 16.3333 15.6667 16.3333C14.1939 16.3333 13 15.1394 13 13.6667C13 12.1939 14.1939 11 15.6667 11C17.1394 11 18.3333 12.1939 18.3333 13.6667Z" stroke="#E97A13" stroke-width="2" stroke-linecap="round" stroke-linejoin="round"/>
</svg>
