<svg width="26" height="22" viewBox="0 0 26 22" fill="none" xmlns="http://www.w3.org/2000/svg">
<path d="M22.7499 11.4593V9.91667C22.7499 7.33081 21.7227 4.85086 19.8942 3.02238C18.0657 1.1939 15.5858 0.166672 12.9999 0.166672C10.4141 0.166672 7.93411 1.1939 6.10563 3.02238C4.27715 4.85086 3.24993 7.33081 3.24993 9.91667V11.4593C2.11368 11.9597 1.18379 12.8351 0.615933 13.9392C0.0480723 15.0432 -0.123291 16.3088 0.13053 17.5241C0.384351 18.7394 1.04795 19.8306 2.01024 20.6151C2.97252 21.3995 4.17508 21.8296 5.41659 21.8333C5.99123 21.8333 6.54233 21.6051 6.94866 21.1987C7.35499 20.7924 7.58326 20.2413 7.58326 19.6667V13.1667C7.58326 12.592 7.35499 12.0409 6.94866 11.6346C6.54233 11.2283 5.99123 11 5.41659 11V9.91667C5.41659 7.90545 6.21555 5.9766 7.6377 4.55444C9.05985 3.13229 10.9887 2.33334 12.9999 2.33334C15.0111 2.33334 16.94 3.13229 18.3622 4.55444C19.7843 5.9766 20.5833 7.90545 20.5833 9.91667V11C20.0086 11 19.4575 11.2283 19.0512 11.6346C18.6449 12.0409 18.4166 12.592 18.4166 13.1667V19.6667H15.1666C14.8793 19.6667 14.6037 19.7808 14.4006 19.984C14.1974 20.1871 14.0833 20.4627 14.0833 20.75C14.0833 21.0373 14.1974 21.3129 14.4006 21.516C14.6037 21.7192 14.8793 21.8333 15.1666 21.8333H20.5833C21.8248 21.8296 23.0273 21.3995 23.9896 20.6151C24.9519 19.8306 25.6155 18.7394 25.8693 17.5241C26.1231 16.3088 25.9518 15.0432 25.3839 13.9392C24.8161 12.8351 23.8862 11.9597 22.7499 11.4593ZM5.41659 19.6667C4.55464 19.6667 3.72799 19.3243 3.1185 18.7148C2.509 18.1053 2.16659 17.2786 2.16659 16.4167C2.16659 15.5547 2.509 14.7281 3.1185 14.1186C3.72799 13.5091 4.55464 13.1667 5.41659 13.1667V19.6667ZM20.5833 19.6667V13.1667C21.4452 13.1667 22.2719 13.5091 22.8814 14.1186C23.4908 14.7281 23.8333 15.5547 23.8333 16.4167C23.8333 17.2786 23.4908 18.1053 22.8814 18.7148C22.2719 19.3243 21.4452 19.6667 20.5833 19.6667Z" fill="#138FE9"/>
</svg>
