<svg width="22" height="20" viewBox="0 0 22 20" fill="none" xmlns="http://www.w3.org/2000/svg">
<path d="M0.164062 6.75C0.164062 3.68587 0.164062 2.15381 1.11597 1.2019C2.06787 0.25 3.59993 0.25 6.66406 0.25H15.3307C18.3949 0.25 19.9269 0.25 20.8788 1.2019C21.8307 2.15381 21.8307 3.68587 21.8307 6.75V8.91667H15.3307C13.5358 8.91667 12.0807 10.3717 12.0807 12.1667C12.0807 13.9616 13.5358 15.4167 15.3307 15.4167H21.8307C21.8307 16.4241 21.8307 16.9279 21.72 17.3412C21.4195 18.4627 20.5434 19.3387 19.4219 19.6393C19.0086 19.75 18.5049 19.75 17.4974 19.75H6.66406C3.59993 19.75 2.06787 19.75 1.11597 18.7981C0.164062 17.8462 0.164062 16.3141 0.164062 13.25V6.75Z" fill="#2B3139"/>
<path d="M5.58203 5.6665H8.83203" stroke="#F6B60B" stroke-width="2.16667" stroke-linecap="round"/>
<path d="M16.4154 12.1665H15.332" stroke="#F6B60B" stroke-width="2.16667" stroke-linecap="round"/>
</svg>
