<svg width="36" height="32" viewBox="0 0 36 32" fill="none" xmlns="http://www.w3.org/2000/svg">
<path d="M11.3999 0.600098C10.1849 0.600098 9.1999 1.58507 9.1999 2.8001C9.1999 4.01512 10.1849 5.0001 11.3999 5.0001H24.5999C25.8149 5.0001 26.7999 4.01512 26.7999 2.8001C26.7999 1.58507 25.8149 0.600098 24.5999 0.600098H11.3999Z" fill="white"/>
<path d="M4.7999 9.4001C4.7999 8.18507 5.78488 7.2001 6.9999 7.2001H28.9999C30.2149 7.2001 31.1999 8.18507 31.1999 9.4001C31.1999 10.6151 30.2149 11.6001 28.9999 11.6001H6.9999C5.78487 11.6001 4.7999 10.6151 4.7999 9.4001Z" fill="white"/>
<path d="M0.399902 18.2001C0.399902 15.77 2.36985 13.8001 4.7999 13.8001H31.1999C33.63 13.8001 35.5999 15.77 35.5999 18.2001V27.0001C35.5999 29.4302 33.63 31.4001 31.1999 31.4001H4.7999C2.36985 31.4001 0.399902 29.4302 0.399902 27.0001V18.2001Z" fill="white"/>
</svg>
