<svg width="35" height="36" viewBox="0 0 35 36" fill="none" xmlns="http://www.w3.org/2000/svg">
<path d="M0.399902 19.0999C0.399902 17.2774 1.87736 15.7999 3.6999 15.7999C5.52244 15.7999 6.9999 17.2774 6.9999 19.0999V32.2999C6.9999 34.1224 5.52244 35.5999 3.6999 35.5999C1.87736 35.5999 0.399902 34.1224 0.399902 32.2999V19.0999Z" fill="white"/>
<path d="M9.1999 18.7332V30.6806C9.1999 32.3471 10.1415 33.8707 11.6322 34.616L11.7418 34.6709C12.9637 35.2818 14.3111 35.5999 15.6773 35.5999H27.5928C29.6902 35.5999 31.496 34.1195 31.9073 32.0628L34.5473 18.8628C35.0919 16.1401 33.0094 13.5999 30.2328 13.5999H22.3999V4.7999C22.3999 2.36985 20.43 0.399902 17.9999 0.399902C16.7849 0.399902 15.7999 1.38488 15.7999 2.5999V4.06657C15.7999 5.97063 15.1823 7.82332 14.0399 9.34657L10.9599 13.4532C9.81747 14.9765 9.1999 16.8292 9.1999 18.7332Z" fill="white"/>
</svg>
