<svg width="16" height="16" viewBox="0 0 16 16" fill="none" xmlns="http://www.w3.org/2000/svg">
<path d="M10.4358 11.0825L11.6958 9.82252C11.8655 9.65492 12.0802 9.54019 12.3139 9.49226C12.5475 9.44434 12.7901 9.46527 13.012 9.55252L14.5477 10.1656C14.772 10.2567 14.9643 10.4121 15.1005 10.6123C15.2366 10.8125 15.3105 11.0486 15.3127 11.2906V14.1031C15.3114 14.2678 15.2767 14.4306 15.2109 14.5815C15.145 14.7325 15.0493 14.8685 14.9295 14.9815C14.8097 15.0945 14.6682 15.1821 14.5137 15.239C14.3591 15.2959 14.1946 15.3209 14.0302 15.3125C3.26954 14.6431 1.09829 5.53065 0.687667 2.04315C0.668605 1.87189 0.686021 1.69853 0.738769 1.53448C0.791517 1.37044 0.8784 1.21942 0.993705 1.09136C1.10901 0.963305 1.25012 0.861113 1.40776 0.791509C1.56539 0.721905 1.73598 0.686465 1.90829 0.687523H4.62517C4.86761 0.688241 5.10429 0.761473 5.30478 0.897802C5.50526 1.03413 5.66037 1.22732 5.75017 1.45252L6.36329 2.98815C6.45343 3.20925 6.47643 3.45201 6.42941 3.6861C6.38239 3.9202 6.26744 4.13525 6.09892 4.3044L4.83892 5.5644C4.83892 5.5644 5.56454 10.475 10.4358 11.0825Z" fill="#138FE9"/>
</svg>
