<svg width="18" height="18" viewBox="0 0 18 18" fill="none" xmlns="http://www.w3.org/2000/svg">
<g clip-path="url(#clip0)">
<path d="M7.5 7.5C6.90326 7.5 6.33097 7.73705 5.90901 8.15901C5.48705 8.58096 5.25 9.15326 5.25 9.75C5.25 10.3467 5.48705 10.919 5.90901 11.341C6.33097 11.7629 6.90326 12 7.5 12H10.5C11.0967 12 11.669 11.7629 12.091 11.341C12.5129 10.919 12.75 10.3467 12.75 9.75C12.75 9.15326 12.5129 8.58096 12.091 8.15901C11.669 7.73705 11.0967 7.5 10.5 7.5H7.5ZM11.25 9.75C11.25 9.94891 11.171 10.1397 11.0303 10.2803C10.8897 10.421 10.6989 10.5 10.5 10.5H7.5C7.30109 10.5 7.11032 10.421 6.96967 10.2803C6.82902 10.1397 6.75 9.94891 6.75 9.75C6.75 9.55108 6.82902 9.36032 6.96967 9.21967C7.11032 9.07901 7.30109 9 7.5 9H10.5C10.6989 9 10.8897 9.07901 11.0303 9.21967C11.171 9.36032 11.25 9.55108 11.25 9.75ZM12.75 14.25C12.75 14.4489 12.671 14.6397 12.5303 14.7803C12.3897 14.921 12.1989 15 12 15H6C5.80109 15 5.61032 14.921 5.46967 14.7803C5.32902 14.6397 5.25 14.4489 5.25 14.25C5.25 14.0511 5.32902 13.8603 5.46967 13.7197C5.61032 13.579 5.80109 13.5 6 13.5H12C12.1989 13.5 12.3897 13.579 12.5303 13.7197C12.671 13.8603 12.75 14.0511 12.75 14.25ZM14.652 2.34075L13.4085 1.09875C13.0612 0.749435 12.648 0.472468 12.1929 0.28387C11.7378 0.0952715 11.2499 -0.00121374 10.7572 -4.02287e-06H6C5.0058 0.00118687 4.05267 0.396657 3.34966 1.09966C2.64666 1.80266 2.25119 2.7558 2.25 3.75V14.25C2.25119 15.2442 2.64666 16.1973 3.34966 16.9003C4.05267 17.6033 5.0058 17.9988 6 18H12C12.9942 17.9988 13.9473 17.6033 14.6503 16.9003C15.3533 16.1973 15.7488 15.2442 15.75 14.25V4.99275C15.7514 4.50006 15.6551 4.01199 15.4666 3.55677C15.2781 3.10156 15.0013 2.68824 14.652 2.34075ZM13.5915 3.40125C13.697 3.50807 13.792 3.62486 13.875 3.75H12V1.875C12.1253 1.95714 12.2419 2.05188 12.348 2.15775L13.5915 3.40125ZM14.25 14.25C14.25 14.8467 14.0129 15.419 13.591 15.841C13.169 16.2629 12.5967 16.5 12 16.5H6C5.40326 16.5 4.83097 16.2629 4.40901 15.841C3.98705 15.419 3.75 14.8467 3.75 14.25V3.75C3.75 3.15326 3.98705 2.58096 4.40901 2.15901C4.83097 1.73705 5.40326 1.5 6 1.5H10.5V3.75C10.5 4.14782 10.658 4.52935 10.9393 4.81066C11.2206 5.09196 11.6022 5.25 12 5.25H14.25V14.25Z" fill="#E97A13"/>
</g>
<defs>
<clipPath id="clip0">
<rect width="18" height="18" fill="white"/>
</clipPath>
</defs>
</svg>
