<svg width="36" height="36" viewBox="0 0 36 36" fill="none" xmlns="http://www.w3.org/2000/svg">
<path fill-rule="evenodd" clip-rule="evenodd" d="M9.78733 3.60081C11.2021 3.48791 12.5452 2.93159 13.6254 2.01104C16.1461 -0.137144 19.8537 -0.137144 22.3744 2.01104C23.4546 2.93159 24.7977 3.48791 26.2125 3.60081C29.5139 3.86426 32.1355 6.48588 32.399 9.78733C32.5119 11.2021 33.0682 12.5452 33.9888 13.6254C36.1369 16.1461 36.1369 19.8537 33.9888 22.3744C33.0682 23.4546 32.5119 24.7977 32.399 26.2125C32.1355 29.5139 29.5139 32.1355 26.2125 32.399C24.7977 32.5119 23.4546 33.0682 22.3744 33.9888C19.8537 36.1369 16.1461 36.1369 13.6254 33.9888C12.5452 33.0682 11.2021 32.5119 9.78733 32.399C6.48588 32.1355 3.86426 29.5139 3.60081 26.2125C3.48791 24.7977 2.93159 23.4546 2.01104 22.3744C-0.137144 19.8537 -0.137144 16.1461 2.01104 13.6254C2.93159 12.5452 3.48791 11.2021 3.60081 9.78733C3.86426 6.48588 6.48588 3.86426 9.78733 3.60081ZM26.1555 15.1555C27.0147 14.2964 27.0147 12.9034 26.1555 12.0443C25.2964 11.1851 23.9034 11.1851 23.0443 12.0443L15.7999 19.2886L12.9555 16.4443C12.0964 15.5851 10.7034 15.5851 9.84427 16.4443C8.98511 17.3034 8.98511 18.6964 9.84427 19.5555L14.2443 23.9555C15.1034 24.8147 16.4964 24.8147 17.3555 23.9555L26.1555 15.1555Z" fill="white"/>
</svg>
