<svg width="50" height="46" viewBox="0 0 50 46" fill="none" xmlns="http://www.w3.org/2000/svg">
<path d="M49.0005 34.4306L31.4834 4.08962C28.6222 -0.922615 21.3868 -0.922615 18.5359 4.08962L1.00855 34.4306C-1.85265 39.4429 1.70841 45.6696 7.48226 45.6696H42.465C48.2388 45.6696 51.8617 39.3811 49.0005 34.4306ZM24.9994 38.9386C23.4761 38.9386 22.2102 37.6726 22.2102 36.1494C22.2102 34.6262 23.4761 33.3603 24.9994 33.3603C26.5226 33.3603 27.7885 34.6262 27.7268 36.2215C27.7988 37.6726 26.4608 38.9386 24.9994 38.9386ZM27.5415 20.9069C27.418 23.0682 27.2842 25.2192 27.1607 27.3806C27.0989 28.0804 27.0989 28.7185 27.0989 29.4081C27.0372 30.5505 26.1418 31.4356 24.9994 31.4356C23.8569 31.4356 22.9718 30.6123 22.8998 29.4699C22.7145 26.1044 22.519 22.8006 22.3337 19.4351C22.272 18.55 22.2102 17.6546 22.1382 16.7695C22.1382 15.308 22.9615 14.1038 24.2995 13.723C25.6375 13.4039 26.9651 14.0421 27.5415 15.308C27.737 15.7505 27.7988 16.1931 27.7988 16.7077C27.737 18.1177 27.6033 19.5174 27.5415 20.9069Z" fill="#E97A13"/>
</svg>
